<?xml version="1.0" encoding="UTF-8" standalone="no"?>
<!-- Created with Inkscape (http://www.inkscape.org/) -->

<svg
   width="397.93042mm"
   height="89.053673mm"
   viewBox="0 0 397.93041 89.053673"
   version="1.1"
   id="svg1"
   xml:space="preserve"
   sodipodi:docname="interpolacion transferencia.svg"
   inkscape:version="1.3.2 (1:1.3.2+202311252150+091e20ef0f)"
   inkscape:export-filename="interpolacion transferencia.png"
   inkscape:export-xdpi="96"
   inkscape:export-ydpi="96"
   xmlns:inkscape="http://www.inkscape.org/namespaces/inkscape"
   xmlns:sodipodi="http://sodipodi.sourceforge.net/DTD/sodipodi-0.dtd"
   xmlns:xlink="http://www.w3.org/1999/xlink"
   xmlns="http://www.w3.org/2000/svg"
   xmlns:svg="http://www.w3.org/2000/svg"><sodipodi:namedview
     id="namedview1"
     pagecolor="#ffffff"
     bordercolor="#000000"
     borderopacity="0.25"
     inkscape:showpageshadow="2"
     inkscape:pageopacity="0.0"
     inkscape:pagecheckerboard="0"
     inkscape:deskcolor="#d1d1d1"
     inkscape:document-units="mm"
     inkscape:zoom="0.7001381"
     inkscape:cx="916.24781"
     inkscape:cy="274.23161"
     inkscape:window-width="1918"
     inkscape:window-height="768"
     inkscape:window-x="1920"
     inkscape:window-y="69"
     inkscape:window-maximized="0"
     inkscape:current-layer="layer1" /><defs
     id="defs1"><style
       type="text/css"
       id="style1">*{stroke-linejoin: round; stroke-linecap: butt}</style><path
       id="m132c981a8f"
       d="M 0,0 V 3.5"
       style="stroke:#000000;stroke-width:0.8" /><path
       id="DejaVuSans-30"
       d="m 2034,4250 q -487,0 -733,-480 -245,-479 -245,-1442 0,-959 245,-1439 246,-480 733,-480 491,0 736,480 246,480 246,1439 0,963 -246,1442 -245,480 -736,480 z m 0,500 q 785,0 1199,-621 414,-620 414,-1801 0,-1178 -414,-1799 -414,-620 -1199,-620 -784,0 -1198,620 -414,621 -414,1799 0,1181 414,1801 414,621 1198,621 z"
       transform="scale(0.015625)" /><path
       id="DejaVuSans-2e"
       d="m 684,794 h 660 V 0 H 684 Z"
       transform="scale(0.015625)" /><path
       id="DejaVuSans-32"
       d="M 1228,531 H 3431 V 0 H 469 v 531 q 359,372 979,998 621,627 780,809 303,340 423,576 121,236 121,464 0,372 -261,606 -261,235 -680,235 -297,0 -627,-103 -329,-103 -704,-313 v 638 q 381,153 712,231 332,78 607,78 725,0 1156,-363 431,-362 431,-968 0,-288 -108,-546 -107,-257 -392,-607 -78,-91 -497,-524 Q 1991,1309 1228,531 Z"
       transform="scale(0.015625)" /><path
       id="DejaVuSans-34"
       d="M 2419,4116 825,1625 h 1594 z m -166,550 h 794 V 1625 h 666 V 1100 H 3047 V 0 H 2419 V 1100 H 313 v 609 z"
       transform="scale(0.015625)" /><path
       id="DejaVuSans-36"
       d="m 2113,2584 q -425,0 -674,-291 -248,-290 -248,-796 0,-503 248,-796 249,-292 674,-292 425,0 673,292 248,293 248,796 0,506 -248,796 -248,291 -673,291 z m 1253,1979 v -575 q -238,112 -480,171 -242,60 -480,60 -625,0 -955,-422 -329,-422 -376,-1275 184,272 462,417 279,145 613,145 703,0 1111,-427 408,-426 408,-1160 0,-719 -425,-1154 -425,-434 -1131,-434 -810,0 -1238,620 -428,621 -428,1799 0,1106 525,1764 525,658 1409,658 238,0 480,-47 242,-47 505,-140 z"
       transform="scale(0.015625)" /><path
       id="DejaVuSans-38"
       d="m 2034,2216 q -450,0 -708,-241 -257,-241 -257,-662 0,-422 257,-663 258,-241 708,-241 450,0 709,242 260,243 260,662 0,421 -258,662 -257,241 -711,241 z m -631,268 q -406,100 -633,378 -226,279 -226,679 0,559 398,884 399,325 1092,325 697,0 1094,-325 397,-325 397,-884 0,-400 -227,-679 -226,-278 -629,-378 456,-106 710,-416 255,-309 255,-755 Q 3634,634 3220,271 2806,-91 2034,-91 1263,-91 848,271 434,634 434,1313 q 0,446 256,755 257,310 713,416 z m -231,997 q 0,-362 226,-565 227,-203 636,-203 407,0 636,203 230,203 230,565 0,363 -230,566 -229,203 -636,203 -409,0 -636,-203 -226,-203 -226,-566 z"
       transform="scale(0.015625)" /><path
       id="DejaVuSans-31"
       d="M 794,531 H 1825 V 4091 L 703,3866 v 575 l 1116,225 h 631 V 531 H 3481 V 0 H 794 Z"
       transform="scale(0.015625)" /><path
       id="m76a019845f"
       d="M 0,0 H -3.5"
       style="stroke:#000000;stroke-width:0.8" /><path
       id="DejaVuSans-2212"
       d="M 678,2272 H 4684 V 1741 H 678 Z"
       transform="scale(0.015625)" /><path
       id="DejaVuSans-33"
       d="m 2597,2516 q 453,-97 707,-404 255,-306 255,-756 0,-690 -475,-1069 -475,-378 -1350,-378 -293,0 -604,58 -311,58 -642,174 v 609 q 262,-153 574,-231 313,-78 654,-78 593,0 904,234 311,234 311,681 0,413 -289,645 -289,233 -804,233 h -544 v 519 h 569 q 465,0 712,186 247,186 247,536 0,359 -255,551 -254,193 -729,193 -260,0 -557,-57 -297,-56 -653,-174 v 562 q 360,100 674,150 314,50 592,50 719,0 1137,-327 419,-326 419,-882 0,-388 -222,-655 -222,-267 -631,-370 z"
       transform="scale(0.015625)" /><path
       id="DejaVuSans-4d"
       d="m 628,4666 h 941 L 2759,1491 3956,4666 h 941 V 0 H 4281 V 4097 L 3078,897 H 2444 L 1241,4097 V 0 H 628 Z"
       transform="scale(0.015625)" /><path
       id="DejaVuSans-f3"
       d="m 1959,3097 q -462,0 -731,-361 -269,-361 -269,-989 0,-628 267,-989 268,-361 733,-361 460,0 728,362 269,363 269,988 0,622 -269,986 -268,364 -728,364 z m 0,487 q 750,0 1178,-488 429,-487 429,-1349 Q 3566,888 3137,398 2709,-91 1959,-91 1206,-91 779,398 353,888 353,1747 q 0,862 426,1349 427,488 1180,488 z m 435,1535 h 622 L 1998,3944 h -479 z"
       transform="scale(0.015625)" /><path
       id="DejaVuSans-64"
       d="m 2906,2969 v 1894 h 575 V 0 H 2906 V 525 Q 2725,213 2448,61 2172,-91 1784,-91 1150,-91 751,415 353,922 353,1747 q 0,825 398,1331 399,506 1033,506 388,0 664,-152 277,-151 458,-463 z M 947,1747 q 0,-634 261,-995 261,-361 717,-361 456,0 718,361 263,361 263,995 0,634 -263,995 -262,361 -718,361 -456,0 -717,-361 -261,-361 -261,-995 z"
       transform="scale(0.015625)" /><path
       id="DejaVuSans-75"
       d="m 544,1381 v 2119 h 575 V 1403 q 0,-497 193,-746 194,-248 582,-248 465,0 735,297 271,297 271,810 v 1984 h 575 V 0 H 2900 V 538 Q 2691,219 2414,64 2138,-91 1772,-91 1169,-91 856,284 544,659 544,1381 Z m 1447,2203 z"
       transform="scale(0.015625)" /><path
       id="DejaVuSans-6c"
       d="m 603,4863 h 575 V 0 H 603 Z"
       transform="scale(0.015625)" /><path
       id="DejaVuSans-6f"
       d="m 1959,3097 q -462,0 -731,-361 -269,-361 -269,-989 0,-628 267,-989 268,-361 733,-361 460,0 728,362 269,363 269,988 0,622 -269,986 -268,364 -728,364 z m 0,487 q 750,0 1178,-488 429,-487 429,-1349 Q 3566,888 3137,398 2709,-91 1959,-91 1206,-91 779,398 353,888 353,1747 q 0,862 426,1349 427,488 1180,488 z"
       transform="scale(0.015625)" /><path
       id="DejaVuSans-20"
       transform="scale(0.015625)"
       d="" /><path
       id="DejaVuSans-5b"
       d="M 550,4863 H 1875 V 4416 H 1125 V -397 h 750 V -844 H 550 Z"
       transform="scale(0.015625)" /><path
       id="DejaVuSans-42"
       d="M 1259,2228 V 519 h 1013 q 509,0 754,211 246,211 246,645 0,438 -246,645 -245,208 -754,208 z m 0,1919 V 2741 h 935 q 462,0 688,173 227,174 227,530 0,353 -227,528 -226,175 -688,175 z m -631,519 h 1613 q 722,0 1112,-300 391,-300 391,-853 0,-429 -200,-682 -200,-253 -588,-315 466,-100 724,-418 258,-317 258,-792 0,-625 -425,-966 Q 3088,0 2303,0 H 628 Z"
       transform="scale(0.015625)" /><path
       id="DejaVuSans-5d"
       d="M 1947,4863 V -844 H 622 v 447 h 747 V 4416 H 622 v 447 z"
       transform="scale(0.015625)" /><path
       id="DejaVuSans-52"
       d="m 2841,2188 q 203,-69 395,-294 192,-225 386,-619 L 4263,0 h -679 l -596,1197 q -232,469 -449,622 -217,153 -592,153 H 1259 V 0 H 628 v 4666 h 1425 q 800,0 1194,-335 394,-334 394,-1009 0,-441 -205,-732 -205,-290 -595,-402 z M 1259,4147 V 2491 h 794 q 456,0 689,211 233,211 233,620 0,409 -233,617 -233,208 -689,208 z"
       transform="scale(0.015625)" /><path
       id="DejaVuSans-65"
       d="M 3597,1894 V 1613 H 953 q 38,-594 358,-905 320,-311 892,-311 331,0 642,81 311,81 618,244 V 178 Q 3153,47 2828,-22 2503,-91 2169,-91 1331,-91 842,396 353,884 353,1716 q 0,859 464,1363 464,505 1252,505 706,0 1117,-455 411,-454 411,-1235 z m -575,169 q -6,471 -264,752 -258,282 -683,282 -481,0 -770,-272 -289,-272 -333,-766 z"
       transform="scale(0.015625)" /><path
       id="DejaVuSans-73"
       d="m 2834,3397 v -544 q -243,125 -506,187 -262,63 -544,63 -428,0 -642,-131 -214,-131 -214,-394 0,-200 153,-314 153,-114 616,-217 l 197,-44 q 612,-131 870,-370 258,-239 258,-667 0,-488 -386,-773 Q 2250,-91 1575,-91 1294,-91 989,-36 684,19 347,128 v 594 q 319,-166 628,-249 309,-82 613,-82 406,0 624,139 219,139 219,392 0,234 -158,359 -157,125 -692,241 l -200,47 q -534,112 -772,345 -237,233 -237,639 0,494 350,762 350,269 994,269 318,0 599,-47 282,-46 519,-140 z"
       transform="scale(0.015625)" /><path
       id="DejaVuSans-70"
       d="M 1159,525 V -1331 H 581 v 4831 h 578 v -531 q 182,312 458,463 277,152 661,152 638,0 1036,-506 399,-506 399,-1331 0,-825 -399,-1332 -398,-506 -1036,-506 -384,0 -661,152 -276,152 -458,464 z m 1957,1222 q 0,634 -261,995 -261,361 -717,361 -457,0 -718,-361 -261,-361 -261,-995 0,-634 261,-995 261,-361 718,-361 456,0 717,361 261,361 261,995 z"
       transform="scale(0.015625)" /><path
       id="DejaVuSans-74"
       d="M 1172,4494 V 3500 H 2356 V 3053 H 1172 V 1153 q 0,-428 117,-550 117,-122 477,-122 h 590 V 0 H 1766 Q 1100,0 847,248 594,497 594,1153 V 3053 H 172 v 447 h 422 v 994 z"
       transform="scale(0.015625)" /><path
       id="DejaVuSans-61"
       d="m 2194,1759 q -697,0 -966,-159 -269,-159 -269,-544 0,-306 202,-486 202,-179 548,-179 479,0 768,339 289,339 289,901 v 128 z m 1147,238 V 0 H 2766 V 531 Q 2569,213 2275,61 1981,-91 1556,-91 q -537,0 -855,302 -317,302 -317,808 0,590 395,890 396,300 1180,300 h 807 v 57 q 0,397 -261,614 -261,217 -733,217 -300,0 -585,-72 -284,-72 -546,-216 v 532 q 315,122 612,182 297,61 578,61 760,0 1135,-394 375,-393 375,-1193 z"
       transform="scale(0.015625)" /><path
       id="DejaVuSans-35"
       d="M 691,4666 H 3169 V 4134 H 1269 V 2991 q 137,47 274,70 138,23 276,23 781,0 1237,-428 457,-428 457,-1159 Q 3513,744 3044,326 2575,-91 1722,-91 1428,-91 1123,-41 819,9 494,109 v 635 q 281,-153 581,-228 300,-75 634,-75 541,0 856,284 316,284 316,772 0,487 -316,771 -315,285 -856,285 -253,0 -505,-56 -251,-56 -513,-175 z"
       transform="scale(0.015625)" /><path
       id="DejaVuSans-46"
       d="M 628,4666 H 3309 V 4134 H 1259 V 2759 H 3109 V 2228 H 1259 V 0 H 628 Z"
       transform="scale(0.015625)" /><path
       id="DejaVuSans-72"
       d="m 2631,2963 q -97,56 -211,82 -114,27 -251,27 -488,0 -749,-317 -261,-317 -261,-911 V 0 H 581 v 3500 h 578 v -544 q 182,319 472,473 291,155 707,155 59,0 131,-8 72,-7 159,-23 z"
       transform="scale(0.015625)" /><path
       id="DejaVuSans-63"
       d="m 3122,3366 v -538 q -244,135 -489,202 -245,67 -495,67 -560,0 -870,-355 -309,-354 -309,-995 0,-641 309,-996 310,-354 870,-354 250,0 495,67 245,67 489,202 V 134 Q 2881,22 2623,-34 2366,-91 2075,-91 1284,-91 818,406 353,903 353,1747 q 0,856 470,1346 471,491 1290,491 265,0 518,-55 253,-54 491,-163 z"
       transform="scale(0.015625)" /><path
       id="DejaVuSans-6e"
       d="M 3513,2113 V 0 h -575 v 2094 q 0,497 -194,743 -194,247 -581,247 -466,0 -735,-297 -269,-296 -269,-809 V 0 H 581 v 3500 h 578 v -544 q 207,316 486,472 280,156 646,156 603,0 912,-373 310,-373 310,-1098 z"
       transform="scale(0.015625)" /><path
       id="DejaVuSans-69"
       d="m 603,3500 h 575 V 0 H 603 Z m 0,1363 h 575 V 4134 H 603 Z"
       transform="scale(0.015625)" /><path
       id="DejaVuSans-6d"
       d="m 3328,2828 q 216,388 516,572 300,184 706,184 547,0 844,-383 297,-382 297,-1088 V 0 h -578 v 2094 q 0,503 -179,746 -178,244 -543,244 -447,0 -707,-297 -259,-296 -259,-809 V 0 h -578 v 2094 q 0,506 -178,748 -178,242 -550,242 -441,0 -701,-298 -259,-298 -259,-808 V 0 H 581 v 3500 h 578 v -544 q 197,322 472,475 275,153 653,153 382,0 649,-194 267,-193 395,-562 z"
       transform="scale(0.015625)" /><path
       id="DejaVuSans-7a"
       d="M 353,3500 H 3084 V 2975 L 922,459 H 3084 V 0 H 275 V 525 L 2438,3041 H 353 Z"
       transform="scale(0.015625)" /><path
       id="DejaVuSans-47"
       d="M 3809,666 V 1919 H 2778 v 519 H 4434 V 434 Q 4069,175 3628,42 3188,-91 2688,-91 1594,-91 976,548 359,1188 359,2328 q 0,1144 617,1783 618,639 1712,639 456,0 867,-113 411,-112 758,-331 v -672 q -350,297 -744,447 -394,150 -828,150 -857,0 -1287,-478 -429,-478 -429,-1425 0,-944 429,-1422 430,-478 1287,-478 334,0 596,58 263,58 472,180 z"
       transform="scale(0.015625)" /><clipPath
       id="pd3ec57b00a"><rect
         x="172.8"
         y="86.1408"
         width="1071.36"
         height="162.56964"
         id="rect289" /></clipPath><clipPath
       id="p0a2d84a9b1"><rect
         x="172.8"
         y="281.22437"
         width="1071.36"
         height="162.56964"
         id="rect290" /></clipPath><clipPath
       id="pa38fd66e0f"><rect
         x="172.8"
         y="476.30795"
         width="1071.36"
         height="162.56964"
         id="rect291" /></clipPath><clipPath
       id="pd3ec57b00a-6"><rect
         x="172.8"
         y="86.1408"
         width="1071.36"
         height="162.56964"
         id="rect289-2" /></clipPath><clipPath
       id="clipPath1"><rect
         x="172.8"
         y="86.1408"
         width="1071.36"
         height="162.56964"
         id="rect1" /></clipPath><clipPath
       id="clipPath2"><rect
         x="172.8"
         y="86.1408"
         width="1071.36"
         height="162.56964"
         id="rect2" /></clipPath><clipPath
       id="clipPath3"><rect
         x="172.8"
         y="86.1408"
         width="1071.36"
         height="162.56964"
         id="rect3" /></clipPath><clipPath
       id="clipPath4"><rect
         x="172.8"
         y="86.1408"
         width="1071.36"
         height="162.56964"
         id="rect4" /></clipPath><clipPath
       id="clipPath5"><rect
         x="172.8"
         y="86.1408"
         width="1071.36"
         height="162.56964"
         id="rect5" /></clipPath><clipPath
       id="clipPath6"><rect
         x="172.8"
         y="86.1408"
         width="1071.36"
         height="162.56964"
         id="rect6" /></clipPath><clipPath
       id="clipPath7"><rect
         x="172.8"
         y="86.1408"
         width="1071.36"
         height="162.56964"
         id="rect7" /></clipPath><clipPath
       id="clipPath8"><rect
         x="172.8"
         y="86.1408"
         width="1071.36"
         height="162.56964"
         id="rect8" /></clipPath><clipPath
       id="clipPath9"><rect
         x="172.8"
         y="86.1408"
         width="1071.36"
         height="162.56964"
         id="rect9" /></clipPath><clipPath
       id="clipPath10"><rect
         x="172.8"
         y="86.1408"
         width="1071.36"
         height="162.56964"
         id="rect10" /></clipPath><clipPath
       id="clipPath11"><rect
         x="172.8"
         y="86.1408"
         width="1071.36"
         height="162.56964"
         id="rect11" /></clipPath><path
       id="path4"
       d="M 0,0 V 3.5"
       style="stroke:#000000;stroke-width:0.8" /><path
       id="path5"
       d="m 2034,4250 q -487,0 -733,-480 -245,-479 -245,-1442 0,-959 245,-1439 246,-480 733,-480 491,0 736,480 246,480 246,1439 0,963 -246,1442 -245,480 -736,480 z m 0,500 q 785,0 1199,-621 414,-620 414,-1801 0,-1178 -414,-1799 -414,-620 -1199,-620 -784,0 -1198,620 -414,621 -414,1799 0,1181 414,1801 414,621 1198,621 z"
       transform="scale(0.015625)" /><path
       id="path6"
       d="m 684,794 h 660 V 0 H 684 Z"
       transform="scale(0.015625)" /><path
       id="path8"
       d="M 1228,531 H 3431 V 0 H 469 v 531 q 359,372 979,998 621,627 780,809 303,340 423,576 121,236 121,464 0,372 -261,606 -261,235 -680,235 -297,0 -627,-103 -329,-103 -704,-313 v 638 q 381,153 712,231 332,78 607,78 725,0 1156,-363 431,-362 431,-968 0,-288 -108,-546 -107,-257 -392,-607 -78,-91 -497,-524 Q 1991,1309 1228,531 Z"
       transform="scale(0.015625)" /><path
       id="path9"
       d="M 2419,4116 825,1625 h 1594 z m -166,550 h 794 V 1625 h 666 V 1100 H 3047 V 0 H 2419 V 1100 H 313 v 609 z"
       transform="scale(0.015625)" /><path
       id="path11"
       d="m 2113,2584 q -425,0 -674,-291 -248,-290 -248,-796 0,-503 248,-796 249,-292 674,-292 425,0 673,292 248,293 248,796 0,506 -248,796 -248,291 -673,291 z m 1253,1979 v -575 q -238,112 -480,171 -242,60 -480,60 -625,0 -955,-422 -329,-422 -376,-1275 184,272 462,417 279,145 613,145 703,0 1111,-427 408,-426 408,-1160 0,-719 -425,-1154 -425,-434 -1131,-434 -810,0 -1238,620 -428,621 -428,1799 0,1106 525,1764 525,658 1409,658 238,0 480,-47 242,-47 505,-140 z"
       transform="scale(0.015625)" /><path
       id="path12"
       d="m 2034,2216 q -450,0 -708,-241 -257,-241 -257,-662 0,-422 257,-663 258,-241 708,-241 450,0 709,242 260,243 260,662 0,421 -258,662 -257,241 -711,241 z m -631,268 q -406,100 -633,378 -226,279 -226,679 0,559 398,884 399,325 1092,325 697,0 1094,-325 397,-325 397,-884 0,-400 -227,-679 -226,-278 -629,-378 456,-106 710,-416 255,-309 255,-755 Q 3634,634 3220,271 2806,-91 2034,-91 1263,-91 848,271 434,634 434,1313 q 0,446 256,755 257,310 713,416 z m -231,997 q 0,-362 226,-565 227,-203 636,-203 407,0 636,203 230,203 230,565 0,363 -230,566 -229,203 -636,203 -409,0 -636,-203 -226,-203 -226,-566 z"
       transform="scale(0.015625)" /><path
       id="path13"
       d="M 794,531 H 1825 V 4091 L 703,3866 v 575 l 1116,225 h 631 V 531 H 3481 V 0 H 794 Z"
       transform="scale(0.015625)" /><path
       id="path15"
       d="M 0,0 H -3.5"
       style="stroke:#000000;stroke-width:0.8" /><path
       id="path16"
       d="M 678,2272 H 4684 V 1741 H 678 Z"
       transform="scale(0.015625)" /><path
       id="path17"
       d="m 2597,2516 q 453,-97 707,-404 255,-306 255,-756 0,-690 -475,-1069 -475,-378 -1350,-378 -293,0 -604,58 -311,58 -642,174 v 609 q 262,-153 574,-231 313,-78 654,-78 593,0 904,234 311,234 311,681 0,413 -289,645 -289,233 -804,233 h -544 v 519 h 569 q 465,0 712,186 247,186 247,536 0,359 -255,551 -254,193 -729,193 -260,0 -557,-57 -297,-56 -653,-174 v 562 q 360,100 674,150 314,50 592,50 719,0 1137,-327 419,-326 419,-882 0,-388 -222,-655 -222,-267 -631,-370 z"
       transform="scale(0.015625)" /><path
       id="path19"
       d="m 628,4666 h 941 L 2759,1491 3956,4666 h 941 V 0 H 4281 V 4097 L 3078,897 H 2444 L 1241,4097 V 0 H 628 Z"
       transform="scale(0.015625)" /><path
       id="path20"
       d="m 1959,3097 q -462,0 -731,-361 -269,-361 -269,-989 0,-628 267,-989 268,-361 733,-361 460,0 728,362 269,363 269,988 0,622 -269,986 -268,364 -728,364 z m 0,487 q 750,0 1178,-488 429,-487 429,-1349 Q 3566,888 3137,398 2709,-91 1959,-91 1206,-91 779,398 353,888 353,1747 q 0,862 426,1349 427,488 1180,488 z m 435,1535 h 622 L 1998,3944 h -479 z"
       transform="scale(0.015625)" /><path
       id="path21"
       d="m 2906,2969 v 1894 h 575 V 0 H 2906 V 525 Q 2725,213 2448,61 2172,-91 1784,-91 1150,-91 751,415 353,922 353,1747 q 0,825 398,1331 399,506 1033,506 388,0 664,-152 277,-151 458,-463 z M 947,1747 q 0,-634 261,-995 261,-361 717,-361 456,0 718,361 263,361 263,995 0,634 -263,995 -262,361 -718,361 -456,0 -717,-361 -261,-361 -261,-995 z"
       transform="scale(0.015625)" /><path
       id="path23"
       d="m 544,1381 v 2119 h 575 V 1403 q 0,-497 193,-746 194,-248 582,-248 465,0 735,297 271,297 271,810 v 1984 h 575 V 0 H 2900 V 538 Q 2691,219 2414,64 2138,-91 1772,-91 1169,-91 856,284 544,659 544,1381 Z m 1447,2203 z"
       transform="scale(0.015625)" /><path
       id="path24"
       d="m 603,4863 h 575 V 0 H 603 Z"
       transform="scale(0.015625)" /><path
       id="path25"
       d="m 1959,3097 q -462,0 -731,-361 -269,-361 -269,-989 0,-628 267,-989 268,-361 733,-361 460,0 728,362 269,363 269,988 0,622 -269,986 -268,364 -728,364 z m 0,487 q 750,0 1178,-488 429,-487 429,-1349 Q 3566,888 3137,398 2709,-91 1959,-91 1206,-91 779,398 353,888 353,1747 q 0,862 426,1349 427,488 1180,488 z"
       transform="scale(0.015625)" /><path
       id="path27"
       transform="scale(0.015625)"
       d="" /><path
       id="path28"
       d="M 550,4863 H 1875 V 4416 H 1125 V -397 h 750 V -844 H 550 Z"
       transform="scale(0.015625)" /><path
       id="path29"
       d="M 1259,2228 V 519 h 1013 q 509,0 754,211 246,211 246,645 0,438 -246,645 -245,208 -754,208 z m 0,1919 V 2741 h 935 q 462,0 688,173 227,174 227,530 0,353 -227,528 -226,175 -688,175 z m -631,519 h 1613 q 722,0 1112,-300 391,-300 391,-853 0,-429 -200,-682 -200,-253 -588,-315 466,-100 724,-418 258,-317 258,-792 0,-625 -425,-966 Q 3088,0 2303,0 H 628 Z"
       transform="scale(0.015625)" /><path
       id="path31"
       d="M 1947,4863 V -844 H 622 v 447 h 747 V 4416 H 622 v 447 z"
       transform="scale(0.015625)" /><path
       id="path32"
       d="m 2841,2188 q 203,-69 395,-294 192,-225 386,-619 L 4263,0 h -679 l -596,1197 q -232,469 -449,622 -217,153 -592,153 H 1259 V 0 H 628 v 4666 h 1425 q 800,0 1194,-335 394,-334 394,-1009 0,-441 -205,-732 -205,-290 -595,-402 z M 1259,4147 V 2491 h 794 q 456,0 689,211 233,211 233,620 0,409 -233,617 -233,208 -689,208 z"
       transform="scale(0.015625)" /><path
       id="path33"
       d="M 3597,1894 V 1613 H 953 q 38,-594 358,-905 320,-311 892,-311 331,0 642,81 311,81 618,244 V 178 Q 3153,47 2828,-22 2503,-91 2169,-91 1331,-91 842,396 353,884 353,1716 q 0,859 464,1363 464,505 1252,505 706,0 1117,-455 411,-454 411,-1235 z m -575,169 q -6,471 -264,752 -258,282 -683,282 -481,0 -770,-272 -289,-272 -333,-766 z"
       transform="scale(0.015625)" /><path
       id="path35"
       d="m 2834,3397 v -544 q -243,125 -506,187 -262,63 -544,63 -428,0 -642,-131 -214,-131 -214,-394 0,-200 153,-314 153,-114 616,-217 l 197,-44 q 612,-131 870,-370 258,-239 258,-667 0,-488 -386,-773 Q 2250,-91 1575,-91 1294,-91 989,-36 684,19 347,128 v 594 q 319,-166 628,-249 309,-82 613,-82 406,0 624,139 219,139 219,392 0,234 -158,359 -157,125 -692,241 l -200,47 q -534,112 -772,345 -237,233 -237,639 0,494 350,762 350,269 994,269 318,0 599,-47 282,-46 519,-140 z"
       transform="scale(0.015625)" /><path
       id="path36"
       d="M 1159,525 V -1331 H 581 v 4831 h 578 v -531 q 182,312 458,463 277,152 661,152 638,0 1036,-506 399,-506 399,-1331 0,-825 -399,-1332 -398,-506 -1036,-506 -384,0 -661,152 -276,152 -458,464 z m 1957,1222 q 0,634 -261,995 -261,361 -717,361 -457,0 -718,-361 -261,-361 -261,-995 0,-634 261,-995 261,-361 718,-361 456,0 717,361 261,361 261,995 z"
       transform="scale(0.015625)" /><path
       id="path37"
       d="M 1172,4494 V 3500 H 2356 V 3053 H 1172 V 1153 q 0,-428 117,-550 117,-122 477,-122 h 590 V 0 H 1766 Q 1100,0 847,248 594,497 594,1153 V 3053 H 172 v 447 h 422 v 994 z"
       transform="scale(0.015625)" /><path
       id="path39"
       d="m 2194,1759 q -697,0 -966,-159 -269,-159 -269,-544 0,-306 202,-486 202,-179 548,-179 479,0 768,339 289,339 289,901 v 128 z m 1147,238 V 0 H 2766 V 531 Q 2569,213 2275,61 1981,-91 1556,-91 q -537,0 -855,302 -317,302 -317,808 0,590 395,890 396,300 1180,300 h 807 v 57 q 0,397 -261,614 -261,217 -733,217 -300,0 -585,-72 -284,-72 -546,-216 v 532 q 315,122 612,182 297,61 578,61 760,0 1135,-394 375,-393 375,-1193 z"
       transform="scale(0.015625)" /><style
       type="text/css"
       id="style1-2">*{stroke-linejoin: round; stroke-linecap: butt}</style><path
       id="mb1a3f15573"
       d="M 0,0 V 3.5"
       style="stroke:#000000;stroke-width:0.8" /><path
       id="DejaVuSans-2212-2"
       d="M 678,2272 H 4684 V 1741 H 678 Z"
       transform="scale(0.015625)" /><path
       id="DejaVuSans-31-0"
       d="M 794,531 H 1825 V 4091 L 703,3866 v 575 l 1116,225 h 631 V 531 H 3481 V 0 H 794 Z"
       transform="scale(0.015625)" /><path
       id="DejaVuSans-2e-2"
       d="m 684,794 h 660 V 0 H 684 Z"
       transform="scale(0.015625)" /><path
       id="DejaVuSans-30-3"
       d="m 2034,4250 q -487,0 -733,-480 -245,-479 -245,-1442 0,-959 245,-1439 246,-480 733,-480 491,0 736,480 246,480 246,1439 0,963 -246,1442 -245,480 -736,480 z m 0,500 q 785,0 1199,-621 414,-620 414,-1801 0,-1178 -414,-1799 -414,-620 -1199,-620 -784,0 -1198,620 -414,621 -414,1799 0,1181 414,1801 414,621 1198,621 z"
       transform="scale(0.015625)" /><path
       id="DejaVuSans-37"
       d="M 525,4666 H 3525 V 4397 L 1831,0 H 1172 L 2766,4134 H 525 Z"
       transform="scale(0.015625)" /><path
       id="DejaVuSans-35-3"
       d="M 691,4666 H 3169 V 4134 H 1269 V 2991 q 137,47 274,70 138,23 276,23 781,0 1237,-428 457,-428 457,-1159 Q 3513,744 3044,326 2575,-91 1722,-91 1428,-91 1123,-41 819,9 494,109 v 635 q 281,-153 581,-228 300,-75 634,-75 541,0 856,284 316,284 316,772 0,487 -316,771 -315,285 -856,285 -253,0 -505,-56 -251,-56 -513,-175 z"
       transform="scale(0.015625)" /><path
       id="DejaVuSans-32-6"
       d="M 1228,531 H 3431 V 0 H 469 v 531 q 359,372 979,998 621,627 780,809 303,340 423,576 121,236 121,464 0,372 -261,606 -261,235 -680,235 -297,0 -627,-103 -329,-103 -704,-313 v 638 q 381,153 712,231 332,78 607,78 725,0 1156,-363 431,-362 431,-968 0,-288 -108,-546 -107,-257 -392,-607 -78,-91 -497,-524 Q 1991,1309 1228,531 Z"
       transform="scale(0.015625)" /><path
       id="DejaVuSans-52-1"
       d="m 2841,2188 q 203,-69 395,-294 192,-225 386,-619 L 4263,0 h -679 l -596,1197 q -232,469 -449,622 -217,153 -592,153 H 1259 V 0 H 628 v 4666 h 1425 q 800,0 1194,-335 394,-334 394,-1009 0,-441 -205,-732 -205,-290 -595,-402 z M 1259,4147 V 2491 h 794 q 456,0 689,211 233,211 233,620 0,409 -233,617 -233,208 -689,208 z"
       transform="scale(0.015625)" /><path
       id="DejaVuSans-65-7"
       d="M 3597,1894 V 1613 H 953 q 38,-594 358,-905 320,-311 892,-311 331,0 642,81 311,81 618,244 V 178 Q 3153,47 2828,-22 2503,-91 2169,-91 1331,-91 842,396 353,884 353,1716 q 0,859 464,1363 464,505 1252,505 706,0 1117,-455 411,-454 411,-1235 z m -575,169 q -6,471 -264,752 -258,282 -683,282 -481,0 -770,-272 -289,-272 -333,-766 z"
       transform="scale(0.015625)" /><path
       id="DejaVuSans-61-7"
       d="m 2194,1759 q -697,0 -966,-159 -269,-159 -269,-544 0,-306 202,-486 202,-179 548,-179 479,0 768,339 289,339 289,901 v 128 z m 1147,238 V 0 H 2766 V 531 Q 2569,213 2275,61 1981,-91 1556,-91 q -537,0 -855,302 -317,302 -317,808 0,590 395,890 396,300 1180,300 h 807 v 57 q 0,397 -261,614 -261,217 -733,217 -300,0 -585,-72 -284,-72 -546,-216 v 532 q 315,122 612,182 297,61 578,61 760,0 1135,-394 375,-393 375,-1193 z"
       transform="scale(0.015625)" /><path
       id="DejaVuSans-6c-1"
       d="m 603,4863 h 575 V 0 H 603 Z"
       transform="scale(0.015625)" /><path
       id="m5f9c4d08a6"
       d="M 0,0 H -3.5"
       style="stroke:#000000;stroke-width:0.8" /><path
       id="DejaVuSans-49"
       d="m 628,4666 h 631 V 0 H 628 Z"
       transform="scale(0.015625)" /><path
       id="DejaVuSans-6d-0"
       d="m 3328,2828 q 216,388 516,572 300,184 706,184 547,0 844,-383 297,-382 297,-1088 V 0 h -578 v 2094 q 0,503 -179,746 -178,244 -543,244 -447,0 -707,-297 -259,-296 -259,-809 V 0 h -578 v 2094 q 0,506 -178,748 -178,242 -550,242 -441,0 -701,-298 -259,-298 -259,-808 V 0 H 581 v 3500 h 578 v -544 q 197,322 472,475 275,153 653,153 382,0 649,-194 267,-193 395,-562 z"
       transform="scale(0.015625)" /><path
       id="DejaVuSans-67"
       d="m 2906,1791 q 0,625 -258,968 -257,344 -723,344 -462,0 -720,-344 -258,-343 -258,-968 0,-622 258,-966 258,-344 720,-344 466,0 723,344 258,344 258,966 z M 3481,434 q 0,-893 -397,-1329 -396,-436 -1215,-436 -303,0 -572,45 -269,45 -522,139 v 559 q 253,-137 500,-202 247,-66 503,-66 566,0 847,295 281,295 281,892 V 616 Q 2728,306 2450,153 2172,0 1784,0 1141,0 747,490 353,981 353,1791 q 0,812 394,1302 394,491 1037,491 388,0 666,-153 278,-153 456,-462 v 531 h 575 z"
       transform="scale(0.015625)" /><path
       id="DejaVuSans-69-4"
       d="m 603,3500 h 575 V 0 H 603 Z m 0,1363 h 575 V 4134 H 603 Z"
       transform="scale(0.015625)" /><path
       id="DejaVuSans-6e-4"
       d="M 3513,2113 V 0 h -575 v 2094 q 0,497 -194,743 -194,247 -581,247 -466,0 -735,-297 -269,-296 -269,-809 V 0 H 581 v 3500 h 578 v -544 q 207,316 486,472 280,156 646,156 603,0 912,-373 310,-373 310,-1098 z"
       transform="scale(0.015625)" /><path
       id="DejaVuSans-72-4"
       d="m 2631,2963 q -97,56 -211,82 -114,27 -251,27 -488,0 -749,-317 -261,-317 -261,-911 V 0 H 581 v 3500 h 578 v -544 q 182,319 472,473 291,155 707,155 59,0 131,-8 72,-7 159,-23 z"
       transform="scale(0.015625)" /><path
       id="DejaVuSans-6f-4"
       d="m 1959,3097 q -462,0 -731,-361 -269,-361 -269,-989 0,-628 267,-989 268,-361 733,-361 460,0 728,362 269,363 269,988 0,622 -269,986 -268,364 -728,364 z m 0,487 q 750,0 1178,-488 429,-487 429,-1349 Q 3566,888 3137,398 2709,-91 1959,-91 1206,-91 779,398 353,888 353,1747 q 0,862 426,1349 427,488 1180,488 z"
       transform="scale(0.015625)" /><path
       id="meee5d4cb95"
       d="M 0,5 C 1.326016,5 2.597899,4.473168 3.535534,3.535534 4.473168,2.597899 5,1.326016 5,0 5,-1.326016 4.473168,-2.597899 3.535534,-3.535534 2.597899,-4.473168 1.326016,-5 0,-5 -1.326016,-5 -2.597899,-4.473168 -3.535534,-3.535534 -4.473168,-2.597899 -5,-1.326016 -5,0 -5,1.326016 -4.473168,2.597899 -3.535534,3.535534 -2.597899,4.473168 -1.326016,5 0,5 Z"
       style="stroke:#0000ff;stroke-width:2" /><path
       id="m810f6993dd"
       d="M -5,5 5,-5 M -5,-5 5,5"
       style="stroke:#ff0000;stroke-width:2" /><path
       id="DejaVuSans-50"
       d="M 1259,4147 V 2394 h 794 q 441,0 681,228 241,228 241,650 0,419 -241,647 -240,228 -681,228 z m -631,519 h 1425 q 785,0 1186,-355 402,-355 402,-1039 0,-691 -402,-1044 -401,-353 -1186,-353 H 1259 V 0 H 628 Z"
       transform="scale(0.015625)" /><path
       id="DejaVuSans-73-7"
       d="m 2834,3397 v -544 q -243,125 -506,187 -262,63 -544,63 -428,0 -642,-131 -214,-131 -214,-394 0,-200 153,-314 153,-114 616,-217 l 197,-44 q 612,-131 870,-370 258,-239 258,-667 0,-488 -386,-773 Q 2250,-91 1575,-91 1294,-91 989,-36 684,19 347,128 v 594 q 319,-166 628,-249 309,-82 613,-82 406,0 624,139 219,139 219,392 0,234 -158,359 -157,125 -692,241 l -200,47 q -534,112 -772,345 -237,233 -237,639 0,494 350,762 350,269 994,269 318,0 599,-47 282,-46 519,-140 z"
       transform="scale(0.015625)" /><path
       id="DejaVuSans-20-5"
       transform="scale(0.015625)"
       d="" /><path
       id="DejaVuSans-79"
       d="m 2059,-325 q -243,-625 -475,-815 -231,-191 -618,-191 H 506 v 481 h 338 q 237,0 368,113 132,112 291,531 L 1606,56 191,3500 H 800 L 1894,763 2988,3500 h 609 z"
       transform="scale(0.015625)" /><path
       id="DejaVuSans-63-9"
       d="m 3122,3366 v -538 q -244,135 -489,202 -245,67 -495,67 -560,0 -870,-355 -309,-354 -309,-995 0,-641 309,-996 310,-354 870,-354 250,0 495,67 245,67 489,202 V 134 Q 2881,22 2623,-34 2366,-91 2075,-91 1284,-91 818,406 353,903 353,1747 q 0,856 470,1346 471,491 1290,491 265,0 518,-55 253,-54 491,-163 z"
       transform="scale(0.015625)" /><path
       id="DejaVuSans-5a"
       d="M 359,4666 H 4025 V 4184 L 1075,531 H 4097 V 0 H 288 V 481 L 3238,4134 H 359 Z"
       transform="scale(0.015625)" /><clipPath
       id="pe4ad3773a2"><rect
         x="62.389999"
         y="26.879999"
         width="502.81"
         height="507.16"
         id="rect158" /></clipPath></defs><g
     inkscape:label="Capa 1"
     inkscape:groupmode="layer"
     id="layer1"
     transform="translate(114.83192,-23.792557)"><rect
       style="opacity:1;fill:#ffffff;fill-opacity:1;stroke:none;stroke-width:1.5;stroke-dasharray:none"
       id="rect123"
       width="397.93042"
       height="89.053673"
       x="-114.83192"
       y="23.792557" /><g
       id="patch_2"
       style="stroke-linecap:butt;stroke-linejoin:round"
       transform="matrix(0.35277778,0,0,0.35277778,-159.94672,-0.33688949)"><path
         d="M 172.8,248.71045 H 1244.16 V 86.1408 H 172.8 Z"
         style="fill:#ffffff;stroke-linecap:butt;stroke-linejoin:round"
         id="path2" /></g><g
       id="xtick_1"
       style="stroke-linecap:butt;stroke-linejoin:round"
       transform="matrix(0.35277778,0,0,0.35277778,-159.94672,-0.33688949)"><g
         id="line2d_1"
         style="stroke-linecap:butt;stroke-linejoin:round"><path
           d="M 172.8,248.71045 V 86.1408"
           clip-path="url(#pd3ec57b00a-6)"
           style="fill:none;stroke:#b0b0b0;stroke-width:0.8;stroke-linecap:square;stroke-linejoin:round"
           id="path3" /></g><g
         id="line2d_2"
         style="stroke-linecap:butt;stroke-linejoin:round"><defs
           id="defs3"><path
             id="path49"
             d="M 0,0 V 3.5"
             style="stroke:#000000;stroke-width:0.8" /></defs><g
           id="g3"
           style="stroke-linecap:butt;stroke-linejoin:round"><use
             xlink:href="#m132c981a8f"
             x="172.8"
             y="248.71045"
             style="stroke:#000000;stroke-width:0.8;stroke-linecap:butt;stroke-linejoin:round"
             id="use3" /></g></g><g
         id="text_1"
         style="stroke-linecap:butt;stroke-linejoin:round"><!-- 0.0 --><g
           transform="matrix(0.1,0,0,-0.1,164.84844,263.30888)"
           id="g6"
           style="stroke-linecap:butt;stroke-linejoin:round"><defs
             id="defs4"><path
               id="path50"
               d="m 2034,4250 q -487,0 -733,-480 -245,-479 -245,-1442 0,-959 245,-1439 246,-480 733,-480 491,0 736,480 246,480 246,1439 0,963 -246,1442 -245,480 -736,480 z m 0,500 q 785,0 1199,-621 414,-620 414,-1801 0,-1178 -414,-1799 -414,-620 -1199,-620 -784,0 -1198,620 -414,621 -414,1799 0,1181 414,1801 414,621 1198,621 z"
               transform="scale(0.015625)" /><path
               id="path51"
               d="m 684,794 h 660 V 0 H 684 Z"
               transform="scale(0.015625)" /></defs><use
             xlink:href="#DejaVuSans-30"
             id="use4"
             style="stroke-linecap:butt;stroke-linejoin:round" /><use
             xlink:href="#DejaVuSans-2e"
             x="63.623047"
             id="use5"
             style="stroke-linecap:butt;stroke-linejoin:round" /><use
             xlink:href="#DejaVuSans-30"
             x="95.410156"
             id="use6"
             style="stroke-linecap:butt;stroke-linejoin:round" /></g></g></g><g
       id="line2d_3"
       style="stroke-linecap:butt;stroke-linejoin:round"
       transform="matrix(0.35277778,0,0,0.35277778,-159.94672,-0.33688949)"><path
         d="M 387.072,248.71045 V 86.1408"
         clip-path="url(#pd3ec57b00a-6)"
         style="fill:none;stroke:#b0b0b0;stroke-width:0.8;stroke-linecap:square;stroke-linejoin:round"
         id="path7" /></g><g
       id="line2d_5"
       style="stroke-linecap:butt;stroke-linejoin:round"
       transform="matrix(0.35277778,0,0,0.35277778,-159.94672,-0.33688949)"><path
         d="M 601.344,248.71045 V 86.1408"
         clip-path="url(#pd3ec57b00a-6)"
         style="fill:none;stroke:#b0b0b0;stroke-width:0.8;stroke-linecap:square;stroke-linejoin:round"
         id="path10" /></g><g
       id="line2d_7"
       style="stroke-linecap:butt;stroke-linejoin:round"
       transform="matrix(0.35277778,0,0,0.35277778,-159.94672,-0.33688949)"><path
         d="M 815.616,248.71045 V 86.1408"
         clip-path="url(#pd3ec57b00a-6)"
         style="fill:none;stroke:#b0b0b0;stroke-width:0.8;stroke-linecap:square;stroke-linejoin:round"
         id="path14" /></g><g
       id="line2d_9"
       style="stroke-linecap:butt;stroke-linejoin:round"
       transform="matrix(0.35277778,0,0,0.35277778,-159.94672,-0.33688949)"><path
         d="M 1029.888,248.71045 V 86.1408"
         clip-path="url(#pd3ec57b00a-6)"
         style="fill:none;stroke:#b0b0b0;stroke-width:0.8;stroke-linecap:square;stroke-linejoin:round"
         id="path18" /></g><g
       id="line2d_11"
       style="stroke-linecap:butt;stroke-linejoin:round"
       transform="matrix(0.35277778,0,0,0.35277778,-159.94672,-0.33688949)"><path
         d="M 1244.16,248.71045 V 86.1408"
         clip-path="url(#pd3ec57b00a-6)"
         style="fill:none;stroke:#b0b0b0;stroke-width:0.8;stroke-linecap:square;stroke-linejoin:round"
         id="path22" /></g><g
       id="matplotlib.axis_2"
       style="stroke-linecap:butt;stroke-linejoin:round"
       transform="matrix(0.35277778,0,0,0.35277778,-159.94672,-0.33688949)"><g
         id="ytick_1"
         style="stroke-linecap:butt;stroke-linejoin:round"><g
           id="line2d_13"
           style="stroke-linecap:butt;stroke-linejoin:round"><path
             d="M 172.8,228.84674 H 1244.16"
             clip-path="url(#pd3ec57b00a-6)"
             style="fill:none;stroke:#b0b0b0;stroke-width:0.8;stroke-linecap:square;stroke-linejoin:round"
             id="path26" /></g><g
           id="line2d_14"
           style="stroke-linecap:butt;stroke-linejoin:round"><defs
             id="defs26"><path
               id="path57"
               d="M 0,0 H -3.5"
               style="stroke:#000000;stroke-width:0.8" /></defs><g
             id="g27"
             style="stroke-linecap:butt;stroke-linejoin:round"><use
               xlink:href="#m76a019845f"
               x="172.8"
               y="228.84674"
               style="stroke:#000000;stroke-width:0.8;stroke-linecap:butt;stroke-linejoin:round"
               id="use27" /></g></g><g
           id="text_7"
           style="stroke-linecap:butt;stroke-linejoin:round"><!-- −40 --><g
             transform="matrix(0.1,0,0,-0.1,144.69531,232.64596)"
             id="g30"
             style="stroke-linecap:butt;stroke-linejoin:round"><defs
               id="defs27"><path
                 id="path58"
                 d="M 678,2272 H 4684 V 1741 H 678 Z"
                 transform="scale(0.015625)" /></defs><use
               xlink:href="#DejaVuSans-2212"
               id="use28"
               style="stroke-linecap:butt;stroke-linejoin:round" /><use
               xlink:href="#DejaVuSans-34"
               x="83.789062"
               id="use29"
               style="stroke-linecap:butt;stroke-linejoin:round" /><use
               xlink:href="#DejaVuSans-30"
               x="147.41211"
               id="use30"
               style="stroke-linecap:butt;stroke-linejoin:round" /></g></g></g><g
         id="ytick_2"
         style="stroke-linecap:butt;stroke-linejoin:round"><g
           id="line2d_15"
           style="stroke-linecap:butt;stroke-linejoin:round"><path
             d="M 172.8,199.44327 H 1244.16"
             clip-path="url(#pd3ec57b00a-6)"
             style="fill:none;stroke:#b0b0b0;stroke-width:0.8;stroke-linecap:square;stroke-linejoin:round"
             id="path30" /></g><g
           id="line2d_16"
           style="stroke-linecap:butt;stroke-linejoin:round"><g
             id="g31"
             style="stroke-linecap:butt;stroke-linejoin:round"><use
               xlink:href="#m76a019845f"
               x="172.8"
               y="199.44327"
               style="stroke:#000000;stroke-width:0.8;stroke-linecap:butt;stroke-linejoin:round"
               id="use31" /></g></g><g
           id="text_8"
           style="stroke-linecap:butt;stroke-linejoin:round"><!-- −30 --><g
             transform="matrix(0.1,0,0,-0.1,144.69531,203.24249)"
             id="g34"
             style="stroke-linecap:butt;stroke-linejoin:round"><defs
               id="defs31"><path
                 id="path59"
                 d="m 2597,2516 q 453,-97 707,-404 255,-306 255,-756 0,-690 -475,-1069 -475,-378 -1350,-378 -293,0 -604,58 -311,58 -642,174 v 609 q 262,-153 574,-231 313,-78 654,-78 593,0 904,234 311,234 311,681 0,413 -289,645 -289,233 -804,233 h -544 v 519 h 569 q 465,0 712,186 247,186 247,536 0,359 -255,551 -254,193 -729,193 -260,0 -557,-57 -297,-56 -653,-174 v 562 q 360,100 674,150 314,50 592,50 719,0 1137,-327 419,-326 419,-882 0,-388 -222,-655 -222,-267 -631,-370 z"
                 transform="scale(0.015625)" /></defs><use
               xlink:href="#DejaVuSans-2212"
               id="use32"
               style="stroke-linecap:butt;stroke-linejoin:round" /><use
               xlink:href="#DejaVuSans-33"
               x="83.789062"
               id="use33"
               style="stroke-linecap:butt;stroke-linejoin:round" /><use
               xlink:href="#DejaVuSans-30"
               x="147.41211"
               id="use34"
               style="stroke-linecap:butt;stroke-linejoin:round" /></g></g></g><g
         id="ytick_3"
         style="stroke-linecap:butt;stroke-linejoin:round"><g
           id="line2d_17"
           style="stroke-linecap:butt;stroke-linejoin:round"><path
             d="M 172.8,170.0398 H 1244.16"
             clip-path="url(#pd3ec57b00a-6)"
             style="fill:none;stroke:#b0b0b0;stroke-width:0.8;stroke-linecap:square;stroke-linejoin:round"
             id="path34" /></g><g
           id="line2d_18"
           style="stroke-linecap:butt;stroke-linejoin:round"><g
             id="g35"
             style="stroke-linecap:butt;stroke-linejoin:round"><use
               xlink:href="#m76a019845f"
               x="172.8"
               y="170.03981"
               style="stroke:#000000;stroke-width:0.8;stroke-linecap:butt;stroke-linejoin:round"
               id="use35" /></g></g><g
           id="text_9"
           style="stroke-linecap:butt;stroke-linejoin:round"><!-- −20 --><g
             transform="matrix(0.1,0,0,-0.1,144.69531,173.83902)"
             id="g38"
             style="stroke-linecap:butt;stroke-linejoin:round"><use
               xlink:href="#DejaVuSans-2212"
               id="use36"
               style="stroke-linecap:butt;stroke-linejoin:round" /><use
               xlink:href="#DejaVuSans-32"
               x="83.789062"
               id="use37"
               style="stroke-linecap:butt;stroke-linejoin:round" /><use
               xlink:href="#DejaVuSans-30"
               x="147.41211"
               id="use38"
               style="stroke-linecap:butt;stroke-linejoin:round" /></g></g></g><g
         id="ytick_4"
         style="stroke-linecap:butt;stroke-linejoin:round"><g
           id="line2d_19"
           style="stroke-linecap:butt;stroke-linejoin:round"><path
             d="M 172.8,140.63633 H 1244.16"
             clip-path="url(#pd3ec57b00a-6)"
             style="fill:none;stroke:#b0b0b0;stroke-width:0.8;stroke-linecap:square;stroke-linejoin:round"
             id="path38" /></g><g
           id="line2d_20"
           style="stroke-linecap:butt;stroke-linejoin:round"><g
             id="g39"
             style="stroke-linecap:butt;stroke-linejoin:round"><use
               xlink:href="#m76a019845f"
               x="172.8"
               y="140.63634"
               style="stroke:#000000;stroke-width:0.8;stroke-linecap:butt;stroke-linejoin:round"
               id="use39" /></g></g><g
           id="text_10"
           style="stroke-linecap:butt;stroke-linejoin:round"><!-- −10 --><g
             transform="matrix(0.1,0,0,-0.1,144.69531,144.43555)"
             id="g42"
             style="stroke-linecap:butt;stroke-linejoin:round"><use
               xlink:href="#DejaVuSans-2212"
               id="use40"
               style="stroke-linecap:butt;stroke-linejoin:round" /><use
               xlink:href="#DejaVuSans-31"
               x="83.789062"
               id="use41"
               style="stroke-linecap:butt;stroke-linejoin:round" /><use
               xlink:href="#DejaVuSans-30"
               x="147.41211"
               id="use42"
               style="stroke-linecap:butt;stroke-linejoin:round" /></g></g></g><g
         id="ytick_5"
         style="stroke-linecap:butt;stroke-linejoin:round"><g
           id="line2d_21"
           style="stroke-linecap:butt;stroke-linejoin:round"><path
             d="M 172.8,111.23286 H 1244.16"
             clip-path="url(#pd3ec57b00a-6)"
             style="fill:none;stroke:#b0b0b0;stroke-width:0.8;stroke-linecap:square;stroke-linejoin:round"
             id="path42" /></g><g
           id="line2d_22"
           style="stroke-linecap:butt;stroke-linejoin:round"><g
             id="g43"
             style="stroke-linecap:butt;stroke-linejoin:round"><use
               xlink:href="#m76a019845f"
               x="172.8"
               y="111.23286"
               style="stroke:#000000;stroke-width:0.8;stroke-linecap:butt;stroke-linejoin:round"
               id="use43" /></g></g><g
           id="text_11"
           style="stroke-linecap:butt;stroke-linejoin:round"><!-- 0 --><g
             transform="matrix(0.1,0,0,-0.1,159.4375,115.03208)"
             id="g44"
             style="stroke-linecap:butt;stroke-linejoin:round"><use
               xlink:href="#DejaVuSans-30"
               id="use44"
               style="stroke-linecap:butt;stroke-linejoin:round" /></g></g></g><g
         id="text_12"
         style="stroke-linecap:butt;stroke-linejoin:round"><!-- Módulo [dB] --><g
           transform="matrix(0,-0.1,-0.1,0,138.61562,197.68578)"
           id="g55"
           style="stroke-linecap:butt;stroke-linejoin:round"><defs
             id="defs44"><path
               id="path60"
               d="m 628,4666 h 941 L 2759,1491 3956,4666 h 941 V 0 H 4281 V 4097 L 3078,897 H 2444 L 1241,4097 V 0 H 628 Z"
               transform="scale(0.015625)" /><path
               id="path61"
               d="m 1959,3097 q -462,0 -731,-361 -269,-361 -269,-989 0,-628 267,-989 268,-361 733,-361 460,0 728,362 269,363 269,988 0,622 -269,986 -268,364 -728,364 z m 0,487 q 750,0 1178,-488 429,-487 429,-1349 Q 3566,888 3137,398 2709,-91 1959,-91 1206,-91 779,398 353,888 353,1747 q 0,862 426,1349 427,488 1180,488 z m 435,1535 h 622 L 1998,3944 h -479 z"
               transform="scale(0.015625)" /><path
               id="path62"
               d="m 2906,2969 v 1894 h 575 V 0 H 2906 V 525 Q 2725,213 2448,61 2172,-91 1784,-91 1150,-91 751,415 353,922 353,1747 q 0,825 398,1331 399,506 1033,506 388,0 664,-152 277,-151 458,-463 z M 947,1747 q 0,-634 261,-995 261,-361 717,-361 456,0 718,361 263,361 263,995 0,634 -263,995 -262,361 -718,361 -456,0 -717,-361 -261,-361 -261,-995 z"
               transform="scale(0.015625)" /><path
               id="path63"
               d="m 544,1381 v 2119 h 575 V 1403 q 0,-497 193,-746 194,-248 582,-248 465,0 735,297 271,297 271,810 v 1984 h 575 V 0 H 2900 V 538 Q 2691,219 2414,64 2138,-91 1772,-91 1169,-91 856,284 544,659 544,1381 Z m 1447,2203 z"
               transform="scale(0.015625)" /><path
               id="path64"
               d="m 603,4863 h 575 V 0 H 603 Z"
               transform="scale(0.015625)" /><path
               id="path65"
               d="m 1959,3097 q -462,0 -731,-361 -269,-361 -269,-989 0,-628 267,-989 268,-361 733,-361 460,0 728,362 269,363 269,988 0,622 -269,986 -268,364 -728,364 z m 0,487 q 750,0 1178,-488 429,-487 429,-1349 Q 3566,888 3137,398 2709,-91 1959,-91 1206,-91 779,398 353,888 353,1747 q 0,862 426,1349 427,488 1180,488 z"
               transform="scale(0.015625)" /><path
               id="path66"
               transform="scale(0.015625)"
               d="" /><path
               id="path67"
               d="M 550,4863 H 1875 V 4416 H 1125 V -397 h 750 V -844 H 550 Z"
               transform="scale(0.015625)" /><path
               id="path68"
               d="M 1259,2228 V 519 h 1013 q 509,0 754,211 246,211 246,645 0,438 -246,645 -245,208 -754,208 z m 0,1919 V 2741 h 935 q 462,0 688,173 227,174 227,530 0,353 -227,528 -226,175 -688,175 z m -631,519 h 1613 q 722,0 1112,-300 391,-300 391,-853 0,-429 -200,-682 -200,-253 -588,-315 466,-100 724,-418 258,-317 258,-792 0,-625 -425,-966 Q 3088,0 2303,0 H 628 Z"
               transform="scale(0.015625)" /><path
               id="path69"
               d="M 1947,4863 V -844 H 622 v 447 h 747 V 4416 H 622 v 447 z"
               transform="scale(0.015625)" /></defs><use
             xlink:href="#DejaVuSans-4d"
             id="use45"
             style="stroke-linecap:butt;stroke-linejoin:round" /><use
             xlink:href="#DejaVuSans-f3"
             x="86.279297"
             id="use46"
             style="stroke-linecap:butt;stroke-linejoin:round" /><use
             xlink:href="#DejaVuSans-64"
             x="147.46094"
             id="use47"
             style="stroke-linecap:butt;stroke-linejoin:round" /><use
             xlink:href="#DejaVuSans-75"
             x="210.9375"
             id="use48"
             style="stroke-linecap:butt;stroke-linejoin:round" /><use
             xlink:href="#DejaVuSans-6c"
             x="274.31641"
             id="use49"
             style="stroke-linecap:butt;stroke-linejoin:round" /><use
             xlink:href="#DejaVuSans-6f"
             x="302.09961"
             id="use50"
             style="stroke-linecap:butt;stroke-linejoin:round" /><use
             xlink:href="#DejaVuSans-20"
             x="363.28125"
             id="use51"
             style="stroke-linecap:butt;stroke-linejoin:round" /><use
             xlink:href="#DejaVuSans-5b"
             x="395.06836"
             id="use52"
             style="stroke-linecap:butt;stroke-linejoin:round" /><use
             xlink:href="#DejaVuSans-64"
             x="434.08203"
             id="use53"
             style="stroke-linecap:butt;stroke-linejoin:round" /><use
             xlink:href="#DejaVuSans-42"
             x="497.55859"
             id="use54"
             style="stroke-linecap:butt;stroke-linejoin:round" /><use
             xlink:href="#DejaVuSans-5d"
             x="566.16211"
             id="use55"
             style="stroke-linecap:butt;stroke-linejoin:round" /></g></g></g><g
       id="patch_3"
       style="stroke-linecap:butt;stroke-linejoin:round"
       transform="matrix(0.35277778,0,0,0.35277778,-159.94672,-0.33688949)"><path
         d="M 172.8,248.71045 V 86.1408"
         style="fill:none;stroke:#000000;stroke-width:0.8;stroke-linecap:square;stroke-linejoin:miter"
         id="path71" /></g><g
       id="patch_4"
       style="stroke-linecap:butt;stroke-linejoin:round"
       transform="matrix(0.35277778,0,0,0.35277778,-159.94672,-0.33688949)"><path
         d="M 1244.16,248.71045 V 86.1408"
         style="fill:none;stroke:#000000;stroke-width:0.8;stroke-linecap:square;stroke-linejoin:miter"
         id="path72" /></g><g
       id="patch_5"
       style="stroke-linecap:butt;stroke-linejoin:round"
       transform="matrix(0.35277778,0,0,0.35277778,-159.94672,-0.33688949)"><path
         d="M 172.8,248.71045 H 1244.16"
         style="fill:none;stroke:#000000;stroke-width:0.8;stroke-linecap:square;stroke-linejoin:miter"
         id="path73" /></g><g
       id="patch_6"
       style="stroke-linecap:butt;stroke-linejoin:round"
       transform="matrix(0.35277778,0,0,0.35277778,-159.94672,-0.33688949)"><path
         d="M 172.8,86.1408 H 1244.16"
         style="fill:none;stroke:#000000;stroke-width:0.8;stroke-linecap:square;stroke-linejoin:miter"
         id="path74" /></g><g
       id="patch_7"
       style="stroke-linecap:butt;stroke-linejoin:round"
       transform="matrix(0.35277778,0,0,0.35277778,-159.94672,-0.33688949)"><path
         d="m 174.7985,111.23286 q 533.67929,0 1066.2405,0"
         style="fill:none;stroke:#000000;stroke-linecap:round;stroke-linejoin:round"
         id="path75" /><path
         d="m 1237.039,109.23286 4,2 -4,2"
         style="fill:none;stroke:#000000;stroke-linecap:round;stroke-linejoin:round"
         id="path76" /></g><g
       id="text_13"
       style="stroke-linecap:butt;stroke-linejoin:round"
       transform="matrix(0.35277778,0,0,0.35277778,-159.94672,-0.33688949)"><!-- Respuesta de Módulo --><g
         transform="matrix(0.12,0,0,-0.12,644.19281,80.1408)"
         id="g79"
         style="stroke-linecap:butt;stroke-linejoin:round"><defs
           id="defs61"><path
             id="path77"
             d="m 2841,2188 q 203,-69 395,-294 192,-225 386,-619 L 4263,0 h -679 l -596,1197 q -232,469 -449,622 -217,153 -592,153 H 1259 V 0 H 628 v 4666 h 1425 q 800,0 1194,-335 394,-334 394,-1009 0,-441 -205,-732 -205,-290 -595,-402 z M 1259,4147 V 2491 h 794 q 456,0 689,211 233,211 233,620 0,409 -233,617 -233,208 -689,208 z"
             transform="scale(0.015625)" /><path
             id="path78"
             d="M 3597,1894 V 1613 H 953 q 38,-594 358,-905 320,-311 892,-311 331,0 642,81 311,81 618,244 V 178 Q 3153,47 2828,-22 2503,-91 2169,-91 1331,-91 842,396 353,884 353,1716 q 0,859 464,1363 464,505 1252,505 706,0 1117,-455 411,-454 411,-1235 z m -575,169 q -6,471 -264,752 -258,282 -683,282 -481,0 -770,-272 -289,-272 -333,-766 z"
             transform="scale(0.015625)" /><path
             id="path79"
             d="m 2834,3397 v -544 q -243,125 -506,187 -262,63 -544,63 -428,0 -642,-131 -214,-131 -214,-394 0,-200 153,-314 153,-114 616,-217 l 197,-44 q 612,-131 870,-370 258,-239 258,-667 0,-488 -386,-773 Q 2250,-91 1575,-91 1294,-91 989,-36 684,19 347,128 v 594 q 319,-166 628,-249 309,-82 613,-82 406,0 624,139 219,139 219,392 0,234 -158,359 -157,125 -692,241 l -200,47 q -534,112 -772,345 -237,233 -237,639 0,494 350,762 350,269 994,269 318,0 599,-47 282,-46 519,-140 z"
             transform="scale(0.015625)" /><path
             id="path80"
             d="M 1159,525 V -1331 H 581 v 4831 h 578 v -531 q 182,312 458,463 277,152 661,152 638,0 1036,-506 399,-506 399,-1331 0,-825 -399,-1332 -398,-506 -1036,-506 -384,0 -661,152 -276,152 -458,464 z m 1957,1222 q 0,634 -261,995 -261,361 -717,361 -457,0 -718,-361 -261,-361 -261,-995 0,-634 261,-995 261,-361 718,-361 456,0 717,361 261,361 261,995 z"
             transform="scale(0.015625)" /><path
             id="path81"
             d="M 1172,4494 V 3500 H 2356 V 3053 H 1172 V 1153 q 0,-428 117,-550 117,-122 477,-122 h 590 V 0 H 1766 Q 1100,0 847,248 594,497 594,1153 V 3053 H 172 v 447 h 422 v 994 z"
             transform="scale(0.015625)" /><path
             id="path82"
             d="m 2194,1759 q -697,0 -966,-159 -269,-159 -269,-544 0,-306 202,-486 202,-179 548,-179 479,0 768,339 289,339 289,901 v 128 z m 1147,238 V 0 H 2766 V 531 Q 2569,213 2275,61 1981,-91 1556,-91 q -537,0 -855,302 -317,302 -317,808 0,590 395,890 396,300 1180,300 h 807 v 57 q 0,397 -261,614 -261,217 -733,217 -300,0 -585,-72 -284,-72 -546,-216 v 532 q 315,122 612,182 297,61 578,61 760,0 1135,-394 375,-393 375,-1193 z"
             transform="scale(0.015625)" /></defs><use
           xlink:href="#DejaVuSans-52"
           id="use61"
           style="stroke-linecap:butt;stroke-linejoin:round" /><use
           xlink:href="#DejaVuSans-65"
           x="64.982422"
           id="use62"
           style="stroke-linecap:butt;stroke-linejoin:round" /><use
           xlink:href="#DejaVuSans-73"
           x="126.50586"
           id="use63"
           style="stroke-linecap:butt;stroke-linejoin:round" /><use
           xlink:href="#DejaVuSans-70"
           x="178.60547"
           id="use64"
           style="stroke-linecap:butt;stroke-linejoin:round" /><use
           xlink:href="#DejaVuSans-75"
           x="242.08203"
           id="use65"
           style="stroke-linecap:butt;stroke-linejoin:round" /><use
           xlink:href="#DejaVuSans-65"
           x="305.46094"
           id="use66"
           style="stroke-linecap:butt;stroke-linejoin:round" /><use
           xlink:href="#DejaVuSans-73"
           x="366.98438"
           id="use67"
           style="stroke-linecap:butt;stroke-linejoin:round" /><use
           xlink:href="#DejaVuSans-74"
           x="419.08398"
           id="use68"
           style="stroke-linecap:butt;stroke-linejoin:round" /><use
           xlink:href="#DejaVuSans-61"
           x="458.29297"
           id="use69"
           style="stroke-linecap:butt;stroke-linejoin:round" /><use
           xlink:href="#DejaVuSans-20"
           x="519.57227"
           id="use70"
           style="stroke-linecap:butt;stroke-linejoin:round" /><use
           xlink:href="#DejaVuSans-64"
           x="551.35938"
           id="use71"
           style="stroke-linecap:butt;stroke-linejoin:round" /><use
           xlink:href="#DejaVuSans-65"
           x="614.83594"
           id="use72"
           style="stroke-linecap:butt;stroke-linejoin:round" /><use
           xlink:href="#DejaVuSans-20"
           x="676.35938"
           id="use73"
           style="stroke-linecap:butt;stroke-linejoin:round" /><use
           xlink:href="#DejaVuSans-4d"
           x="708.14648"
           id="use74"
           style="stroke-linecap:butt;stroke-linejoin:round" /><use
           xlink:href="#DejaVuSans-f3"
           x="794.42578"
           id="use75"
           style="stroke-linecap:butt;stroke-linejoin:round" /><use
           xlink:href="#DejaVuSans-64"
           x="855.60742"
           id="use76"
           style="stroke-linecap:butt;stroke-linejoin:round" /><use
           xlink:href="#DejaVuSans-75"
           x="919.08398"
           id="use77"
           style="stroke-linecap:butt;stroke-linejoin:round" /><use
           xlink:href="#DejaVuSans-6c"
           x="982.46289"
           id="use78"
           style="stroke-linecap:butt;stroke-linejoin:round" /><use
           xlink:href="#DejaVuSans-6f"
           x="1010.2461"
           id="use79"
           style="stroke-linecap:butt;stroke-linejoin:round" /></g></g><g
       id="g115"
       style="fill:#ff0000;stroke:#ff0000"><text
         xml:space="preserve"
         style="font-size:12.7px;font-family:cmr10;-inkscape-font-specification:cmr10;opacity:0.5;fill:#ff0000;fill-opacity:1;stroke:#ff0000;stroke-width:0.3"
         x="-31.424122"
         y="99.432175"
         id="text114"><tspan
           sodipodi:role="line"
           id="tspan114"
           style="fill:#ff0000;fill-opacity:1;stroke:#ff0000;stroke-width:0.3"
           x="-31.424122"
           y="99.432175">f </tspan></text><text
         xml:space="preserve"
         style="font-size:7.11575px;font-family:cmr10;-inkscape-font-specification:cmr10;opacity:0.5;fill:#ff0000;fill-opacity:1;stroke:#ff0000;stroke-width:0.168089"
         x="-27.424433"
         y="101.45032"
         id="text115"><tspan
           sodipodi:role="line"
           id="tspan115"
           style="fill:#ff0000;stroke:#ff0000;stroke-width:0.168089"
           x="-27.424433"
           y="101.45032">N1</tspan></text></g><g
       id="g117"
       transform="translate(77.477383,-0.66060696)"
       style="fill:#000080;stroke:#000080"><text
         xml:space="preserve"
         style="font-size:12.7px;font-family:cmr10;-inkscape-font-specification:cmr10;opacity:0.5;fill:#000080;fill-opacity:1;stroke:#000080;stroke-width:0.3"
         x="-31.424122"
         y="99.432175"
         id="text116"><tspan
           sodipodi:role="line"
           id="tspan116"
           style="fill:#000080;fill-opacity:1;stroke:#000080;stroke-width:0.3"
           x="-31.424122"
           y="99.432175">f </tspan></text><text
         xml:space="preserve"
         style="font-size:7.11575px;font-family:cmr10;-inkscape-font-specification:cmr10;opacity:0.5;fill:#000080;fill-opacity:1;stroke:#000080;stroke-width:0.168089"
         x="-27.424433"
         y="101.45032"
         id="text117"><tspan
           sodipodi:role="line"
           id="tspan117"
           style="fill:#000080;stroke:#000080;stroke-width:0.168089"
           x="-27.424433"
           y="101.45032">N2</tspan></text></g><g
       id="g119"
       transform="translate(152.92501,-0.66060696)"
       style="fill:#ff6600;stroke:#ff6600"><text
         xml:space="preserve"
         style="font-size:12.7px;font-family:cmr10;-inkscape-font-specification:cmr10;opacity:0.5;fill:#ff6600;fill-opacity:1;stroke:#ff6600;stroke-width:0.3"
         x="-31.424122"
         y="99.432175"
         id="text118"><tspan
           sodipodi:role="line"
           id="tspan118"
           style="fill:#ff6600;fill-opacity:1;stroke:#ff6600;stroke-width:0.3"
           x="-31.424122"
           y="99.432175">f </tspan></text><text
         xml:space="preserve"
         style="font-size:7.11575px;font-family:cmr10;-inkscape-font-specification:cmr10;opacity:0.5;fill:#ff6600;fill-opacity:1;stroke:#ff6600;stroke-width:0.168089"
         x="-27.424433"
         y="101.45032"
         id="text119"><tspan
           sodipodi:role="line"
           id="tspan119"
           style="fill:#ff6600;stroke:#ff6600;stroke-width:0.168089"
           x="-27.424433"
           y="101.45032">N3</tspan></text></g><g
       id="g121"
       transform="translate(227.49878,-0.66060696)"
       style="fill:#008000;stroke:#008000"><text
         xml:space="preserve"
         style="font-size:12.7px;font-family:cmr10;-inkscape-font-specification:cmr10;opacity:0.5;fill:#008000;fill-opacity:1;stroke:#008000;stroke-width:0.3"
         x="-31.424122"
         y="99.432175"
         id="text120"><tspan
           sodipodi:role="line"
           id="tspan120"
           style="fill:#008000;fill-opacity:1;stroke:#008000;stroke-width:0.3"
           x="-31.424122"
           y="99.432175">f </tspan></text><text
         xml:space="preserve"
         style="font-size:7.11575px;font-family:cmr10;-inkscape-font-specification:cmr10;opacity:0.5;fill:#008000;fill-opacity:1;stroke:#008000;stroke-width:0.168089"
         x="-27.424433"
         y="101.45032"
         id="text121"><tspan
           sodipodi:role="line"
           id="tspan121"
           style="fill:#008000;stroke:#008000;stroke-width:0.168089"
           x="-27.424433"
           y="101.45032">N4</tspan></text></g><rect
       style="opacity:0.388684;fill:#483e37;stroke:#f2f2f2;stroke-width:0.7;stroke-dasharray:2.8, 2.8;stroke-dashoffset:0"
       id="rect121"
       width="377.9447"
       height="17.1007"
       x="-99.006836"
       y="70.036415" /><rect
       style="opacity:0.388684;fill:#7cff7c;fill-opacity:1;stroke:#008000;stroke-width:0.7;stroke-dasharray:2.8, 2.8;stroke-dashoffset:0"
       id="rect119"
       width="302.43677"
       height="27.782064"
       x="-99.006836"
       y="59.355061" /><rect
       style="opacity:0.388684;fill:#ff9955;stroke:#ff6600;stroke-width:0.7;stroke-dasharray:2.8, 2.8;stroke-dashoffset:0"
       id="rect118"
       width="226.73824"
       height="37.926624"
       x="-99.006836"
       y="49.210499" /><rect
       style="opacity:0.388684;fill:#a9ffff;fill-opacity:1;stroke:#002eff;stroke-width:0.7;stroke-dasharray:2.8, 2.8;stroke-dashoffset:0;stroke-opacity:1"
       id="rect117"
       width="150.39259"
       height="47.671185"
       x="-98.388565"
       y="39.465939" /><g
       id="g123"
       transform="translate(299.30831,-0.66060696)"
       style="fill:#241f1c;stroke:#241f1c"><text
         xml:space="preserve"
         style="font-size:12.7px;font-family:cmr10;-inkscape-font-specification:cmr10;opacity:0.5;fill:#241f1c;fill-opacity:1;stroke:#241f1c;stroke-width:0.3"
         x="-31.424122"
         y="99.432175"
         id="text122"><tspan
           sodipodi:role="line"
           id="tspan122"
           style="fill:#241f1c;fill-opacity:1;stroke:#241f1c;stroke-width:0.3"
           x="-31.424122"
           y="99.432175">f </tspan></text><text
         xml:space="preserve"
         style="font-size:7.11575px;font-family:cmr10;-inkscape-font-specification:cmr10;opacity:0.5;fill:#241f1c;fill-opacity:1;stroke:#241f1c;stroke-width:0.168089"
         x="-27.424433"
         y="101.45032"
         id="text123"><tspan
           sodipodi:role="line"
           id="tspan123"
           style="fill:#241f1c;stroke:#241f1c;stroke-width:0.168089"
           x="-27.424433"
           y="101.45032">N5</tspan></text></g><rect
       style="opacity:0.388684;fill:#ff8080;stroke:#ff0000;stroke-width:0.7;stroke-dasharray:2.8, 2.8;stroke-dashoffset:0"
       id="rect114"
       width="74.329285"
       height="56.087334"
       x="-98.501266"
       y="30.545168" /><g
       id="line2d_23"
       style="stroke-linecap:butt;stroke-linejoin:round"
       transform="matrix(0.35277778,0,0,0.35277778,-159.94672,-0.33688949)"><path
         d="m 174.8925,200.21759 2.0925,-17.69965 2.0925,-10.35038 2.0925,-7.34025 2.0925,-5.68996 2.0925,-4.64539 2.0925,-3.9239 2.0925,-3.39529 2.0925,-2.99108 2.0925,-2.6718 2.0925,-2.41311 2.0925,-2.19914 4.185,-3.88471 4.185,-3.35002 4.185,-2.9397 4.185,-2.6143 4.185,-2.34945 4.185,-2.12931 4.185,-1.94309 6.2775,-2.62164 6.2775,-2.32807 6.2775,-2.08369 6.2775,-1.87623 8.37,-2.2272 8.37,-1.95959 8.37,-1.73022 8.37,-1.53002 10.4625,-1.665098 10.4625,-1.421504 10.4625,-1.203683 10.4625,-1.005533 12.555,-0.966021 12.555,-0.721496 12.555,-0.490463 12.555,-0.268175 12.555,-0.05052 12.555,0.166262 12.555,0.385901 12.555,0.61231 12.555,0.849891 12.555,1.103903 10.4625,1.130351 10.4625,1.340477 10.4625,1.573968 10.4625,1.83825 8.37,1.68808 8.37,1.91099 8.37,2.17007 6.2775,1.826 6.2775,2.02516 6.2775,2.25869 6.2775,2.53765 4.185,1.87634 4.185,2.05123 4.185,2.25672 4.185,2.50212 4.185,2.80095 4.185,3.17364 4.185,3.65242 2.0925,2.05284 2.0925,2.23893 2.0925,2.46084 2.0925,2.73019 2.0925,3.06413 2.0925,3.48942 2.0925,4.04981 2.0925,4.82253 2.0925,5.95779 2.0925,7.7927 2.0925,11.27959 2.0925,20.70817 2.0925,35.40471 2.0925,-45.7593 2.0925,-15.47701 2.0925,-9.56409 2.0925,-6.93764 2.0925,-5.44517 2.0925,-4.48074 2.0925,-3.80554 2.0925,-3.30605 2.0925,-2.92137 2.0925,-2.61582 2.0925,-2.36714 2.0925,-2.1607 4.185,-3.82403 4.185,-3.3042 4.185,-2.90383 4.185,-2.5854 4.185,-2.32564 4.185,-2.1093 4.185,-1.92603 6.2775,-2.60021 6.2775,-2.31042 6.2775,-2.06881 6.2775,-1.86349 8.37,-2.21274 8.37,-1.94729 8.37,-1.71958 8.37,-1.52066 10.4625,-1.654765 10.4625,-1.412343 10.4625,-1.195414 10.4625,-0.997947 12.555,-0.957596 12.555,-0.713605 12.555,-0.482937 12.555,-0.260867 12.555,-0.04331 12.555,0.173516 12.555,0.393316 12.555,0.620023 12.555,0.858061 12.555,1.112726 10.4625,1.138381 10.4625,1.349326 10.4625,1.583885 10.4625,1.8496 8.37,1.69851 8.37,1.923 8.37,2.18416 6.2775,1.83838 6.2775,2.03956 6.2775,2.27572 6.2775,2.55823 4.185,1.89265 4.185,2.07028 4.185,2.27928 4.185,2.52933 4.185,2.83449 4.185,3.21605 4.185,3.70796 2.0925,2.08761 2.0925,2.28014 2.0925,2.51047 2.0925,2.79112 2.0925,3.1408 2.0925,3.58884 2.0925,4.184 2.0925,5.01367 2.0925,6.25209 2.0925,8.30493 2.0925,12.39543 2.0925,25.04772 2.0925,10.35518 2.0925,-31.99317 2.0925,-13.76191 2.0925,-8.88978 2.0925,-6.57702 2.0925,-5.22053 2.0925,-4.32732 2.0925,-3.69405 2.0925,-3.22133 2.0925,-2.85479 2.0925,-2.56208 2.0925,-2.32285 2.0925,-2.12355 4.185,-3.76513 4.185,-3.25956 4.185,-2.86877 4.185,-2.55709 4.185,-2.30225 4.185,-2.08963 6.2775,-2.80424 6.2775,-2.47754 6.2775,-2.20876 6.2775,-1.98286 6.2775,-1.78958 8.37,-2.12847 8.37,-1.87549 8.37,-1.65721 10.4625,-1.8046 10.4625,-1.544489 10.4625,-1.314151 10.4625,-1.106429 12.555,-1.077588 12.555,-0.825488 12.555,-0.589244 12.555,-0.3637 12.555,-0.144517 v 0"
         clip-path="url(#pd3ec57b00a-6)"
         style="fill:none;stroke:#1f77b4;stroke-width:4.25197;stroke-linecap:square;stroke-linejoin:round;stroke-dasharray:none"
         id="path70" /></g><g
       id="g2"
       style="fill:#ff0000;stroke:#ff0000"
       transform="translate(0,14.41309)"><text
         xml:space="preserve"
         style="font-size:10.5677px;font-family:cmr10;-inkscape-font-specification:cmr10;opacity:0.5;fill:#ff0000;fill-opacity:1;stroke:#ff0000;stroke-width:0.249631"
         x="-57.403912"
         y="97.26622"
         id="text1"><tspan
           sodipodi:role="line"
           style="fill:#ff0000;fill-opacity:1;stroke:#ff0000;stroke-width:0.249631"
           x="-57.403912"
           y="97.26622"
           id="tspan7">U=</tspan></text><text
         xml:space="preserve"
         style="font-size:10.5677px;font-family:cmr10;-inkscape-font-specification:cmr10;opacity:0.5;fill:#ff0000;fill-opacity:1;stroke:#ff0000;stroke-width:0.249631"
         x="-27.378355"
         y="97.26622"
         id="text2"><tspan
           sodipodi:role="line"
           id="tspan2"
           style="fill:#ff0000;fill-opacity:1;stroke:#ff0000;stroke-width:0.249631"
           x="-27.378355"
           y="97.26622">1</tspan></text><text
         xml:space="preserve"
         style="font-size:10.5677px;font-family:cmr10;-inkscape-font-specification:cmr10;opacity:0.5;fill:#ff0000;fill-opacity:1;stroke:#ff0000;stroke-width:0.249631"
         x="48.635674"
         y="97.26622"
         id="text3"><tspan
           sodipodi:role="line"
           id="tspan3"
           style="fill:#ff0000;fill-opacity:1;stroke:#ff0000;stroke-width:0.249631"
           x="48.635674"
           y="97.26622">2</tspan></text><text
         xml:space="preserve"
         style="font-size:10.5677px;font-family:cmr10;-inkscape-font-specification:cmr10;opacity:0.5;fill:#ff0000;fill-opacity:1;stroke:#ff0000;stroke-width:0.249631"
         x="125.78568"
         y="97.26622"
         id="text4"><tspan
           sodipodi:role="line"
           id="tspan4"
           style="fill:#ff0000;fill-opacity:1;stroke:#ff0000;stroke-width:0.249631"
           x="125.78568"
           y="97.26622">3</tspan></text><text
         xml:space="preserve"
         style="font-size:10.5677px;font-family:cmr10;-inkscape-font-specification:cmr10;opacity:0.5;fill:#ff0000;fill-opacity:1;stroke:#ff0000;stroke-width:0.249631"
         x="198.79434"
         y="97.26622"
         id="text5"><tspan
           sodipodi:role="line"
           id="tspan5"
           style="fill:#ff0000;fill-opacity:1;stroke:#ff0000;stroke-width:0.249631"
           x="198.79434"
           y="97.26622">4</tspan></text><text
         xml:space="preserve"
         style="font-size:10.5677px;font-family:cmr10;-inkscape-font-specification:cmr10;opacity:0.5;fill:#ff0000;fill-opacity:1;stroke:#ff0000;stroke-width:0.249631"
         x="267.72592"
         y="97.26622"
         id="text6"><tspan
           sodipodi:role="line"
           id="tspan6"
           style="fill:#ff0000;fill-opacity:1;stroke:#ff0000;stroke-width:0.249631"
           x="267.72592"
           y="97.26622">5...</tspan></text></g><path
       style="opacity:1;fill:#ffaaaa;fill-opacity:1;stroke:#d40000;stroke-width:0.531958;stroke-linecap:square;stroke-linejoin:round;stroke-dasharray:none;stroke-dashoffset:0;stroke-opacity:1"
       d="m 6.7175557,98.586084 c 0.5406155,1.316565 0.7129546,2.807546 0,4.717806 1.0774428,-0.79896 2.3492077,-0.80051 3.6276643,-0.7746 v 3.11261 c 1.759129,-2.2265 3.440478,-4.55682 6.761175,-4.69904 C 13.9997,100.26442 12.24411,97.986653 10.34522,95.878512 v 3.482467 c -1.3951417,0.1134 -2.593561,-0.1665 -3.6276643,-0.774895 z"
       id="path40"
       sodipodi:nodetypes="cccccccc" /><path
       style="opacity:1;fill:#ffaaaa;fill-opacity:1;stroke:#d40000;stroke-width:0.531958;stroke-linecap:square;stroke-linejoin:round;stroke-dasharray:none;stroke-dashoffset:0;stroke-opacity:1"
       d="m 84.577005,98.586084 c 0.540615,1.316565 0.712955,2.807546 0,4.717806 1.077443,-0.79896 2.349208,-0.80051 3.627664,-0.7746 v 3.11261 c 1.759129,-2.2265 3.440478,-4.55682 6.761175,-4.69904 -3.106695,-0.67844 -4.862285,-2.956207 -6.761175,-5.064348 v 3.482467 c -1.395141,0.1134 -2.593561,-0.1665 -3.627664,-0.774895 z"
       id="path41"
       sodipodi:nodetypes="cccccccc" /><path
       style="opacity:1;fill:#ffaaaa;fill-opacity:1;stroke:#d40000;stroke-width:0.531958;stroke-linecap:square;stroke-linejoin:round;stroke-dasharray:none;stroke-dashoffset:0;stroke-opacity:1"
       d="m 161.82615,98.586084 c 0.54061,1.316565 0.71295,2.807546 0,4.717806 1.07744,-0.79896 2.34921,-0.80051 3.62766,-0.7746 v 3.11261 c 1.75913,-2.2265 3.44048,-4.55682 6.76118,-4.69904 -3.1067,-0.67844 -4.86229,-2.956207 -6.76118,-5.064348 v 3.482467 c -1.39514,0.1134 -2.59356,-0.1665 -3.62766,-0.774895 z"
       id="path43"
       sodipodi:nodetypes="cccccccc" /><path
       style="opacity:1;fill:#ffaaaa;fill-opacity:1;stroke:#d40000;stroke-width:0.531958;stroke-linecap:square;stroke-linejoin:round;stroke-dasharray:none;stroke-dashoffset:0;stroke-opacity:1"
       d="m 233.63956,98.586084 c 0.54061,1.316565 0.71295,2.807546 0,4.717806 1.07744,-0.79896 2.34921,-0.80051 3.62766,-0.7746 v 3.11261 c 1.75913,-2.2265 3.44048,-4.55682 6.76118,-4.69904 -3.1067,-0.67844 -4.86229,-2.956207 -6.76118,-5.064348 v 3.482467 c -1.39514,0.1134 -2.59356,-0.1665 -3.62766,-0.774895 z"
       id="path44"
       sodipodi:nodetypes="cccccccc" /></g></svg>
