<?xml version="1.0" encoding="UTF-8" standalone="no"?>
<!-- Created with Inkscape (http://www.inkscape.org/) -->

<svg
   xmlns:dc="http://purl.org/dc/elements/1.1/"
   xmlns:cc="http://creativecommons.org/ns#"
   xmlns:rdf="http://www.w3.org/1999/02/22-rdf-syntax-ns#"
   xmlns:svg="http://www.w3.org/2000/svg"
   xmlns="http://www.w3.org/2000/svg"
   xmlns:sodipodi="http://sodipodi.sourceforge.net/DTD/sodipodi-0.dtd"
   xmlns:inkscape="http://www.inkscape.org/namespaces/inkscape"
   width="348.99631"
   height="108.46268"
   id="svg2995"
   version="1.1"
   inkscape:version="0.91 r13725"
   sodipodi:docname="logo UTN.svg">
  <defs
     id="defs2997" />
  <sodipodi:namedview
     id="base"
     pagecolor="#ffffff"
     bordercolor="#666666"
     borderopacity="1.0"
     inkscape:pageopacity="0.0"
     inkscape:pageshadow="2"
     inkscape:zoom="1.2313948"
     inkscape:cx="33.971061"
     inkscape:cy="-16.907211"
     inkscape:document-units="px"
     inkscape:current-layer="layer1"
     showgrid="false"
     inkscape:window-width="1920"
     inkscape:window-height="1005"
     inkscape:window-x="0"
     inkscape:window-y="24"
     inkscape:window-maximized="1"
     fit-margin-top="0"
     fit-margin-left="0"
     fit-margin-right="0"
     fit-margin-bottom="0" />
  <metadata
     id="metadata3000">
    <rdf:RDF>
      <cc:Work
         rdf:about="">
        <dc:format>image/svg+xml</dc:format>
        <dc:type
           rdf:resource="http://purl.org/dc/dcmitype/StillImage" />
        <dc:title />
      </cc:Work>
    </rdf:RDF>
  </metadata>
  <g
     inkscape:label="Capa 1"
     inkscape:groupmode="layer"
     id="layer1"
     transform="translate(-236.28495,-380.85533)">
    <g
       id="g3780"
       transform="translate(0.55559609,0.11878802)"
       style="stroke-width:6;stroke-miterlimit:4;stroke-dasharray:none">
      <path
         sodipodi:nodetypes="cc"
         inkscape:connector-curvature="0"
         id="path3003"
         d="m 264.32814,428.28114 37.89464,0"
         style="fill:#ff0000;stroke:#000000;stroke-width:6;stroke-linecap:butt;stroke-linejoin:miter;stroke-miterlimit:4;stroke-opacity:1;stroke-dasharray:none" />
      <path
         sodipodi:nodetypes="cc"
         inkscape:connector-curvature="0"
         id="path3003-7"
         d="m 283.24992,405.94283 0,44.67663"
         style="fill:none;stroke:#000000;stroke-width:6;stroke-linecap:butt;stroke-linejoin:miter;stroke-miterlimit:4;stroke-opacity:1;stroke-dasharray:none" />
      <path
         sodipodi:open="true"
         sodipodi:end="9.4334653"
         sodipodi:start="6.2558346"
         transform="matrix(0.28232495,0,0,-0.29566006,203.02449,565.06355)"
         d="m 342.83522,386.74012 a 58.660713,58.660713 0 0 1 -28.53271,51.95005 58.660713,58.660713 0 0 1 -59.26733,0.55308 58.660713,58.660713 0 0 1 -29.49724,-51.40852"
         sodipodi:ry="58.660713"
         sodipodi:rx="58.660713"
         sodipodi:cy="388.34433"
         sodipodi:cx="284.19644"
         id="path3848-0"
         style="fill:none;stroke:#000000;stroke-width:20.767313;stroke-linecap:butt;stroke-linejoin:miter;stroke-miterlimit:4;stroke-opacity:1;stroke-dasharray:none;stroke-dashoffset:0"
         sodipodi:type="arc" />
      <path
         sodipodi:open="true"
         sodipodi:end="9.4551165"
         sodipodi:start="6.251687"
         transform="matrix(0.28139427,0,0,0.29140602,203.27415,293.36478)"
         d="m 342.82806,386.49692 a 58.660713,58.660713 0 0 1 -28.74998,52.32678 58.660713,58.660713 0 0 1 -59.70471,0.0346 58.660713,58.660713 0 0 1 -28.81065,-52.2934"
         sodipodi:ry="58.660713"
         sodipodi:rx="58.660713"
         sodipodi:cy="388.34433"
         sodipodi:cx="284.19644"
         id="path3848-0-9"
         style="fill:none;stroke:#000000;stroke-width:20.95291138;stroke-linecap:butt;stroke-linejoin:miter;stroke-miterlimit:4;stroke-opacity:1;stroke-dasharray:none;stroke-dashoffset:0"
         sodipodi:type="arc" />
    </g>
    <path
       sodipodi:type="arc"
       style="fill:none;stroke:#000000;stroke-width:1.63399971;stroke-linecap:butt;stroke-linejoin:miter;stroke-miterlimit:4;stroke-opacity:1;stroke-dasharray:none;stroke-dashoffset:0"
       id="path3010"
       sodipodi:cx="-110.8627"
       sodipodi:cy="166.54192"
       sodipodi:rx="50.984985"
       sodipodi:ry="50.984985"
       d="m -59.877716,166.54192 a 50.984985,50.984985 0 0 1 -50.984984,50.98498 50.984985,50.984985 0 0 1 -50.98499,-50.98498 50.984985,50.984985 0 0 1 50.98499,-50.98499 50.984985,50.984985 0 0 1 50.984984,50.98499 z"
       transform="matrix(0.91799282,0,0,0.91799282,385.60222,275.51565)" />
    <path
       sodipodi:type="arc"
       style="fill:none;stroke:#000000;stroke-width:1.91565335;stroke-linecap:butt;stroke-linejoin:miter;stroke-miterlimit:4;stroke-opacity:1;stroke-dasharray:none;stroke-dashoffset:0"
       id="path3010-1"
       sodipodi:cx="-110.8627"
       sodipodi:cy="166.54192"
       sodipodi:rx="50.984985"
       sodipodi:ry="50.984985"
       d="m -59.877716,166.54192 a 50.984985,50.984985 0 0 1 -50.984984,50.98498 50.984985,50.984985 0 0 1 -50.98499,-50.98498 50.984985,50.984985 0 0 1 50.98499,-50.98499 50.984985,50.984985 0 0 1 50.984984,50.98499 z"
       transform="matrix(0.78302266,0,0,0.78302266,370.63906,297.99384)" />
    <text
       xml:space="preserve"
       style="font-size:11.89830399px;font-style:normal;font-variant:normal;font-weight:normal;font-stretch:normal;line-height:125%;letter-spacing:0px;word-spacing:0px;fill:#000000;fill-opacity:1;stroke:none;font-family:Arial;-inkscape-font-specification:Arial"
       x="350.10925"
       y="474.50516"
       id="text3804"
       sodipodi:linespacing="125%"><tspan
         sodipodi:role="line"
         id="tspan3806"
         x="350.10925"
         y="474.50516">UNIVERSIDAD TECNOLÓGICA NACIONAL</tspan></text>
    <text
       xml:space="preserve"
       style="font-size:11.89830399px;font-style:normal;font-variant:normal;font-weight:normal;font-stretch:normal;line-height:125%;letter-spacing:0px;word-spacing:0px;fill:#000000;fill-opacity:1;stroke:none;font-family:Arial;-inkscape-font-specification:Arial"
       x="358.97989"
       y="489.17276"
       id="text3804-1"
       sodipodi:linespacing="125%"><tspan
         sodipodi:role="line"
         id="tspan3806-0"
         x="358.97989"
         y="489.17276">FACULTAD REGIONAL BUENOS AIRES</tspan></text>
    <path
       style="fill:none;stroke:#000000;stroke-width:6;stroke-linecap:butt;stroke-linejoin:round;stroke-miterlimit:0;stroke-opacity:1;stroke-dasharray:none"
       d="m 354.99677,405.71224 0,31.73743 c -0.30287,5.49596 3.77542,10.91708 9.5982,10.88129 l 9.92411,-0.0417 c 6.01092,-0.0253 9.96988,-5.84862 9.8744,-11.10733 l -0.0424,-31.53033"
       id="path3833"
       inkscape:connector-curvature="0"
       sodipodi:nodetypes="cccscc" />
    <path
       style="fill:none;stroke:#000000;stroke-width:6;stroke-linecap:butt;stroke-linejoin:miter;stroke-miterlimit:4;stroke-opacity:1;stroke-dasharray:none"
       d="m 413.46226,450.71476 0,-44.98967"
       id="path3871"
       inkscape:connector-curvature="0"
       sodipodi:nodetypes="cc" />
    <path
       style="fill:none;stroke:#000000;stroke-width:6;stroke-linecap:butt;stroke-linejoin:miter;stroke-miterlimit:4;stroke-opacity:1;stroke-dasharray:none"
       d="m 394.85252,408.65625 36.98967,0"
       id="path3871-9"
       inkscape:connector-curvature="0"
       sodipodi:nodetypes="cc" />
    <path
       style="fill:none;stroke:#c2353b;stroke-width:6;stroke-linecap:butt;stroke-linejoin:miter;stroke-miterlimit:4;stroke-opacity:1;stroke-dasharray:none"
       d="m 505.84736,450.66672 0,-45.01082"
       id="path3871-90"
       inkscape:connector-curvature="0"
       sodipodi:nodetypes="cc" />
    <path
       style="fill:none;stroke:#c2353b;stroke-width:6;stroke-linecap:butt;stroke-linejoin:miter;stroke-miterlimit:4;stroke-opacity:1;stroke-dasharray:none"
       d="m 508.72752,408.65625 16.24484,0 c 11.28354,-0.48412 11.99809,18.5325 0.5171,18.59441 l -17.30413,0.0933 17.38888,-0.065 c 13.2994,-0.0497 13.47787,19.99694 1.13923,20.43973 l -18.18375,-0.0624"
       id="path3871-9-3"
       inkscape:connector-curvature="0"
       sodipodi:nodetypes="ccscscc" />
    <path
       sodipodi:type="arc"
       style="fill:none;stroke:#000000;stroke-width:6;stroke-linecap:butt;stroke-linejoin:round;stroke-miterlimit:4;stroke-opacity:1;stroke-dasharray:none;stroke-dashoffset:0"
       id="path3938"
       sodipodi:cx="272.5625"
       sodipodi:cy="167.09375"
       sodipodi:rx="1.5625"
       sodipodi:ry="1.5625"
       d="m 274.125,167.09375 a 1.5625,1.5625 0 0 1 -1.5625,1.5625 1.5625,1.5625 0 0 1 -1.5625,-1.5625 1.5625,1.5625 0 0 1 1.5625,-1.5625 1.5625,1.5625 0 0 1 1.5625,1.5625 z"
       transform="translate(216.34736,280.125)" />
    <path
       style="fill:none;stroke:#000000;stroke-width:6;stroke-linecap:butt;stroke-linejoin:round;stroke-miterlimit:0;stroke-opacity:1;stroke-dasharray:none"
       d="m 441.76904,451.11178 0,-31.73743 c -0.30287,-5.49596 3.77542,-10.91708 9.5982,-10.88129 l 9.92411,0.0417 c 6.01092,0.0253 9.96988,5.84862 9.8744,11.10733 l -0.0424,31.53033"
       id="path3833-9"
       inkscape:connector-curvature="0"
       sodipodi:nodetypes="cccscc" />
    <path
       style="fill:none;stroke:#c2353b;stroke-width:6;stroke-linecap:butt;stroke-linejoin:round;stroke-miterlimit:0;stroke-opacity:1;stroke-dasharray:none"
       d="m 552.87319,450.22789 0,-31.73743 c -0.30287,-5.49596 3.77542,-10.91708 9.5982,-10.88129 l 9.92411,0.0417 c 6.01092,0.0253 9.96988,5.84862 9.8744,11.10733 l -0.0424,31.53033"
       id="path3833-9-4"
       inkscape:connector-curvature="0"
       sodipodi:nodetypes="cccscc" />
    <rect
       style="opacity:1;fill:#c2353b;fill-opacity:1;stroke:none;stroke-width:1.5;stroke-miterlimit:5.5;stroke-dasharray:12, 12;stroke-dashoffset:0;stroke-opacity:1"
       id="rect3352"
       width="32.510838"
       height="6.0991211"
       x="550.84534"
       y="428.55087" />
  </g>
</svg>
