<?xml version="1.0" encoding="UTF-8" standalone="no"?>
<!-- Generator: Adobe Illustrator 16.0.0, SVG Export Plug-In . SVG Version: 6.00 Build 0)  -->

<svg
   xmlns:dc="http://purl.org/dc/elements/1.1/"
   xmlns:cc="http://creativecommons.org/ns#"
   xmlns:rdf="http://www.w3.org/1999/02/22-rdf-syntax-ns#"
   xmlns:svg="http://www.w3.org/2000/svg"
   xmlns="http://www.w3.org/2000/svg"
   xmlns:sodipodi="http://sodipodi.sourceforge.net/DTD/sodipodi-0.dtd"
   xmlns:inkscape="http://www.inkscape.org/namespaces/inkscape"
   version="1.1"
   id="Capa_1"
   x="0px"
   y="0px"
   width="800"
   height="346.83801"
   viewBox="0 0 800.00002 346.838"
   xml:space="preserve"
   sodipodi:docname="ojo.svg"
   inkscape:version="0.92.3 (2405546, 2018-03-11)"><metadata
   id="metadata51"><rdf:RDF><cc:Work
       rdf:about=""><dc:format>image/svg+xml</dc:format><dc:type
         rdf:resource="http://purl.org/dc/dcmitype/StillImage" /><dc:title></dc:title></cc:Work></rdf:RDF></metadata><defs
   id="defs49">
	
	
</defs><sodipodi:namedview
   pagecolor="#ffffff"
   bordercolor="#666666"
   borderopacity="1"
   objecttolerance="10"
   gridtolerance="10"
   guidetolerance="10"
   inkscape:pageopacity="0"
   inkscape:pageshadow="2"
   inkscape:window-width="1920"
   inkscape:window-height="996"
   id="namedview47"
   showgrid="false"
   fit-margin-top="0"
   fit-margin-left="0"
   fit-margin-right="0"
   fit-margin-bottom="0"
   inkscape:zoom="0.66042647"
   inkscape:cx="232.60039"
   inkscape:cy="3.4192763"
   inkscape:window-x="0"
   inkscape:window-y="28"
   inkscape:window-maximized="1"
   inkscape:current-layer="Capa_1" />
<g
   id="g6"
   transform="translate(0,-122.662)">
		<path
   inkscape:connector-curvature="0"
   id="path2"
   d="m 523.08,203.416 c -20.766,-16.802 -43.408,-31.302 -67.295,-43.098 -24.34,-12.019 -50.064,-21.272 -76.459,-27.503 -27.129,-6.404 -55.139,-9.652 -83.245,-9.652 -28.107,0 -56.115,3.248 -83.246,9.652 -26.394,6.231 -52.118,15.484 -76.458,27.503 -23.888,11.796 -46.529,26.296 -67.295,43.098 C 48.449,220.11 29.621,239.112 13.12,259.896 4.982,270.147 0.5,282.998 0.5,296.082 c 0,13.084 4.482,25.936 12.62,36.186 16.502,20.783 35.33,39.786 55.963,56.479 20.766,16.802 43.408,31.303 67.295,43.098 24.34,12.02 50.064,21.272 76.458,27.504 27.131,6.404 55.139,9.651 83.246,9.651 28.106,0 56.116,-3.247 83.245,-9.651 26.395,-6.231 52.119,-15.484 76.459,-27.504 23.887,-11.795 46.529,-26.296 67.295,-43.098 20.633,-16.693 39.461,-35.696 55.963,-56.479 8.137,-10.25 12.619,-23.102 12.619,-36.186 0,-13.084 -4.482,-25.936 -12.619,-36.186 -16.503,-20.784 -35.331,-39.786 -55.964,-56.48 z m 22.41,102.212 c -28.389,35.757 -64.305,65.264 -105.35,86.135 5.934,-8.923 11.037,-18.392 15.254,-28.36 9.028,-21.346 13.606,-43.996 13.606,-67.321 0,-23.325 -4.578,-45.975 -13.605,-67.321 -4.217,-9.968 -9.32,-19.438 -15.254,-28.361 41.045,20.871 76.961,50.379 105.35,86.134 4.443,5.594 4.443,13.501 -10e-4,19.094 z M 46.671,286.534 c 28.389,-35.755 64.305,-65.263 105.351,-86.134 -5.935,8.923 -11.038,18.392 -15.254,28.36 -9.028,21.346 -13.606,43.996 -13.606,67.322 0,23.325 4.578,45.975 13.606,67.321 4.216,9.968 9.319,19.438 15.254,28.359 -41.046,-20.871 -76.962,-50.379 -105.351,-86.135 -4.441,-5.592 -4.441,-13.499 0,-19.093 z m 249.411,139.627 c -71.841,0 -130.079,-58.239 -130.079,-130.079 0,-71.84 58.238,-130.079 130.079,-130.079 71.84,0 130.079,58.238 130.079,130.079 -10e-4,71.839 -58.239,130.079 -130.079,130.079 z" />
		<path
   inkscape:connector-curvature="0"
   id="path4"
   d="m 296.082,469.5 c -28.146,0 -56.192,-3.252 -83.36,-9.665 -26.434,-6.24 -52.193,-15.507 -76.564,-27.542 C 112.24,420.482 89.567,405.963 68.769,389.136 48.11,372.422 29.256,353.393 12.729,332.578 4.521,322.24 0,309.279 0,296.082 c 0,-13.196 4.521,-26.158 12.729,-36.497 16.523,-20.812 35.378,-39.841 56.039,-56.558 20.793,-16.825 43.466,-31.345 67.389,-43.158 24.373,-12.036 50.133,-21.302 76.564,-27.542 27.169,-6.413 55.216,-9.665 83.36,-9.665 28.146,0 56.192,3.252 83.36,9.665 26.432,6.24 52.191,15.506 76.565,27.542 23.924,11.814 46.597,26.334 67.388,43.158 20.66,16.716 39.515,35.745 56.04,56.558 8.207,10.339 12.728,23.301 12.728,36.497 0,13.196 -4.521,26.157 -12.728,36.496 -16.527,20.815 -35.382,39.844 -56.04,56.558 -20.795,16.825 -43.468,31.346 -67.388,43.157 -24.371,12.035 -50.132,21.302 -76.565,27.542 -27.166,6.413 -55.212,9.665 -83.359,9.665 z m 0,-345.837 c -28.067,0 -56.037,3.243 -83.131,9.639 -26.357,6.222 -52.045,15.463 -76.351,27.465 -23.856,11.78 -46.466,26.261 -67.202,43.039 C 48.794,220.477 29.991,239.453 13.513,260.208 5.444,270.369 1,283.11 1,296.082 c 0,12.973 4.443,25.713 12.512,35.875 16.481,20.757 35.284,39.733 55.886,56.401 20.74,16.78 43.35,31.261 67.202,43.038 24.303,12.001 49.991,21.242 76.351,27.466 27.093,6.395 55.062,9.638 83.131,9.638 28.07,0 56.039,-3.243 83.129,-9.638 26.361,-6.224 52.05,-15.465 76.353,-27.466 23.854,-11.779 46.465,-26.259 67.202,-43.038 20.602,-16.668 39.404,-35.645 55.886,-56.401 8.067,-10.163 12.511,-22.904 12.511,-35.875 0,-12.971 -4.443,-25.711 -12.511,-35.875 -16.479,-20.756 -35.282,-39.732 -55.886,-56.402 -20.734,-16.776 -43.344,-31.257 -67.202,-43.039 -24.306,-12.002 -49.994,-21.243 -76.353,-27.465 -27.092,-6.396 -55.061,-9.638 -83.129,-9.638 z m 0,302.998 c -72.001,0 -130.579,-58.577 -130.579,-130.579 0,-72.001 58.577,-130.579 130.579,-130.579 72.002,0 130.578,58.577 130.578,130.579 0,72.001 -58.577,130.579 -130.578,130.579 z m 0,-260.158 c -71.45,0 -129.579,58.129 -129.579,129.579 0,71.45 58.129,129.579 129.579,129.579 71.45,0 129.578,-58.129 129.578,-129.579 0,-71.45 -58.129,-129.579 -129.578,-129.579 z m -142.588,226.569 -1.698,-0.863 C 111.178,371.556 74.692,341.725 46.28,305.939 c -4.608,-5.804 -4.608,-13.911 0,-19.716 28.412,-35.785 64.899,-65.616 105.516,-86.269 l 1.698,-0.863 -1.055,1.586 c -5.922,8.904 -11.04,18.418 -15.21,28.278 -9.002,21.286 -13.567,43.871 -13.567,67.127 0,23.258 4.564,45.843 13.567,67.127 4.172,9.862 9.289,19.376 15.21,28.276 z m -2.93,-191.363 c -39.813,20.552 -75.572,49.959 -103.501,85.136 -4.318,5.438 -4.318,13.034 0,18.473 27.929,35.176 63.688,64.584 103.501,85.136 -5.515,-8.493 -10.307,-17.519 -14.256,-26.855 -9.055,-21.407 -13.646,-44.123 -13.646,-67.516 0,-23.391 4.591,-46.106 13.646,-67.517 3.948,-9.334 8.739,-18.36 14.256,-26.857 z m 288.106,191.363 1.055,-1.585 c 5.922,-8.907 11.04,-18.421 15.209,-28.278 9.002,-21.285 13.566,-43.87 13.566,-67.127 0,-23.256 -4.564,-45.841 -13.566,-67.126 -4.17,-9.858 -9.287,-19.373 -15.209,-28.279 l -1.055,-1.585 1.697,0.863 c 40.616,20.653 77.103,50.485 105.515,86.269 4.61,5.805 4.61,13.913 0,19.716 -28.41,35.784 -64.896,65.616 -105.515,86.27 z m 2.929,-191.364 c 5.517,8.498 10.309,17.524 14.256,26.857 9.055,21.41 13.646,44.125 13.646,67.516 0,23.392 -4.591,46.107 -13.645,67.516 -3.948,9.333 -8.739,18.358 -14.257,26.857 39.813,-20.554 75.572,-49.961 103.5,-85.137 4.319,-5.438 4.319,-13.035 0,-18.473 -27.929,-35.176 -63.688,-64.583 -103.5,-85.136 z" />
	</g><g
   id="g12"
   transform="translate(0,-122.662)">
		<path
   inkscape:connector-curvature="0"
   id="path8"
   d="m 348.322,243.841 c -6.771,-6.771 -14.668,-12.093 -23.471,-15.816 -9.137,-3.864 -18.816,-5.823 -28.771,-5.823 -9.955,0 -19.635,1.959 -28.771,5.823 -8.803,3.723 -16.699,9.044 -23.471,15.815 -6.771,6.771 -12.092,14.668 -15.815,23.471 -3.864,9.136 -5.823,18.816 -5.823,28.771 0,9.955 1.959,19.635 5.823,28.771 3.724,8.803 9.044,16.699 15.815,23.471 6.771,6.772 14.668,12.093 23.471,15.815 9.136,3.864 18.816,5.823 28.771,5.823 9.954,0 19.634,-1.959 28.771,-5.823 8.803,-3.724 16.699,-9.044 23.471,-15.815 6.772,-6.771 12.092,-14.668 15.816,-23.471 3.863,-9.137 5.822,-18.816 5.822,-28.771 0,-9.955 -1.959,-19.634 -5.822,-28.771 -3.724,-8.803 -9.044,-16.699 -15.816,-23.47 z m -52.24,83.281 c -17.143,0 -31.04,-13.897 -31.04,-31.04 0,-17.143 13.897,-31.04 31.04,-31.04 17.143,0 31.04,13.897 31.04,31.04 0,17.143 -13.897,31.04 -31.04,31.04 z" />
		<path
   inkscape:connector-curvature="0"
   id="path10"
   d="m 296.081,370.461 c -10.022,0 -19.768,-1.973 -28.966,-5.862 -8.862,-3.748 -16.812,-9.105 -23.629,-15.923 -6.816,-6.816 -12.173,-14.767 -15.922,-23.63 -3.89,-9.196 -5.863,-18.942 -5.863,-28.965 0,-10.021 1.973,-19.767 5.863,-28.965 3.748,-8.862 9.105,-16.812 15.922,-23.63 6.817,-6.817 14.767,-12.174 23.629,-15.922 9.198,-3.89 18.943,-5.863 28.966,-5.863 10.021,0 19.768,1.973 28.965,5.863 8.862,3.748 16.812,9.105 23.63,15.923 6.815,6.814 12.173,14.764 15.924,23.628 3.889,9.198 5.861,18.944 5.861,28.965 0,10.021 -1.973,19.768 -5.861,28.966 -3.751,8.864 -9.108,16.814 -15.924,23.63 -6.816,6.816 -14.767,12.173 -23.63,15.923 -9.197,3.89 -18.943,5.862 -28.965,5.862 z m 0,-147.759 c -9.888,0 -19.502,1.946 -28.576,5.784 -8.743,3.698 -16.586,8.983 -23.312,15.708 -6.726,6.727 -12.011,14.57 -15.708,23.312 -3.838,9.074 -5.784,18.688 -5.784,28.576 0,9.889 1.946,19.503 5.784,28.576 3.699,8.743 8.983,16.586 15.708,23.312 6.726,6.726 14.569,12.011 23.312,15.708 9.074,3.838 18.688,5.784 28.576,5.784 9.888,0 19.502,-1.946 28.576,-5.784 8.744,-3.698 16.587,-8.983 23.312,-15.708 6.724,-6.724 12.01,-14.567 15.709,-23.312 3.838,-9.074 5.783,-18.689 5.783,-28.576 0,-9.887 -1.945,-19.501 -5.783,-28.576 -3.7,-8.745 -8.985,-16.587 -15.709,-23.311 -6.726,-6.726 -14.569,-12.011 -23.312,-15.709 -9.074,-3.839 -18.688,-5.784 -28.576,-5.784 z m 10e-4,104.92 c -17.391,0 -31.54,-14.148 -31.54,-31.54 0,-17.391 14.149,-31.54 31.54,-31.54 17.391,0 31.54,14.149 31.54,31.54 -0.001,17.391 -14.149,31.54 -31.54,31.54 z m 0,-62.08 c -16.84,0 -30.54,13.7 -30.54,30.54 0,16.84 13.7,30.54 30.54,30.54 16.839,0 30.54,-13.7 30.54,-30.54 0,-16.84 -13.701,-30.54 -30.54,-30.54 z" />
	</g>
<g
   id="g16"
   transform="translate(0,-122.662)">
</g>
<g
   id="g18"
   transform="translate(0,-122.662)">
</g>
<g
   id="g20"
   transform="translate(0,-122.662)">
</g>
<g
   id="g22"
   transform="translate(0,-122.662)">
</g>
<g
   id="g24"
   transform="translate(0,-122.662)">
</g>
<g
   id="g26"
   transform="translate(0,-122.662)">
</g>
<g
   id="g28"
   transform="translate(0,-122.662)">
</g>
<g
   id="g30"
   transform="translate(0,-122.662)">
</g>
<g
   id="g32"
   transform="translate(0,-122.662)">
</g>
<g
   id="g34"
   transform="translate(0,-122.662)">
</g>
<g
   id="g36"
   transform="translate(0,-122.662)">
</g>
<g
   id="g38"
   transform="translate(0,-122.662)">
</g>
<g
   id="g40"
   transform="translate(0,-122.662)">
</g>
<g
   id="g42"
   transform="translate(0,-122.662)">
</g>
<g
   id="g44"
   transform="translate(0,-122.662)">
</g>
</svg>