<?xml version="1.0" encoding="UTF-8" standalone="no"?>
<svg
   width="1175.0543pt"
   height="624.7182pt"
   viewBox="0 0 1175.0543 624.71818"
   version="1.1"
   id="svg518"
   sodipodi:docname="Figure_3.svg"
   inkscape:version="1.2 (1:1.2.1+202207142221+cd75a1ee6d)"
   xmlns:inkscape="http://www.inkscape.org/namespaces/inkscape"
   xmlns:sodipodi="http://sodipodi.sourceforge.net/DTD/sodipodi-0.dtd"
   xmlns:xlink="http://www.w3.org/1999/xlink"
   xmlns="http://www.w3.org/2000/svg"
   xmlns:svg="http://www.w3.org/2000/svg"
   xmlns:rdf="http://www.w3.org/1999/02/22-rdf-syntax-ns#"
   xmlns:cc="http://creativecommons.org/ns#"
   xmlns:dc="http://purl.org/dc/elements/1.1/">
  <sodipodi:namedview
     id="namedview520"
     pagecolor="#ffffff"
     bordercolor="#000000"
     borderopacity="0.25"
     inkscape:showpageshadow="2"
     inkscape:pageopacity="0.0"
     inkscape:pagecheckerboard="0"
     inkscape:deskcolor="#d1d1d1"
     inkscape:document-units="pt"
     showgrid="false"
     showguides="false"
     inkscape:zoom="0.82081312"
     inkscape:cx="783.36955"
     inkscape:cy="416.05086"
     inkscape:window-width="1920"
     inkscape:window-height="981"
     inkscape:window-x="0"
     inkscape:window-y="28"
     inkscape:window-maximized="1"
     inkscape:current-layer="svg518" />
  <metadata
     id="metadata2">
    <rdf:RDF>
      <cc:Work>
        <dc:type
           rdf:resource="http://purl.org/dc/dcmitype/StillImage" />
        <dc:date>2022-08-29T12:43:34.255137</dc:date>
        <dc:format>image/svg+xml</dc:format>
        <dc:creator>
          <cc:Agent>
            <dc:title>Matplotlib v3.5.3, https://matplotlib.org/</dc:title>
          </cc:Agent>
        </dc:creator>
      </cc:Work>
    </rdf:RDF>
  </metadata>
  <defs
     id="defs6">
    <style
       type="text/css"
       id="style4">*{stroke-linejoin: round; stroke-linecap: butt}</style>
    <defs
       id="defs157">
      <path
         id="DejaVuSans-46"
         d="M 628,4666 H 3309 V 4134 H 1259 V 2759 H 3109 V 2228 H 1259 V 0 H 628 Z"
         transform="scale(0.015625)" />
      <path
         id="DejaVuSans-72"
         d="m 2631,2963 q -97,56 -211,82 -114,27 -251,27 -488,0 -749,-317 -261,-317 -261,-911 V 0 H 581 v 3500 h 578 v -544 q 182,319 472,473 291,155 707,155 59,0 131,-8 72,-7 159,-23 z"
         transform="scale(0.015625)" />
      <path
         id="DejaVuSans-65"
         d="M 3597,1894 V 1613 H 953 q 38,-594 358,-905 320,-311 892,-311 331,0 642,81 311,81 618,244 V 178 Q 3153,47 2828,-22 2503,-91 2169,-91 1331,-91 842,396 353,884 353,1716 q 0,859 464,1363 464,505 1252,505 706,0 1117,-455 411,-454 411,-1235 z m -575,169 q -6,471 -264,752 -258,282 -683,282 -481,0 -770,-272 -289,-272 -333,-766 z"
         transform="scale(0.015625)" />
      <path
         id="DejaVuSans-71"
         d="m 947,1747 q 0,-634 261,-995 261,-361 717,-361 456,0 718,361 263,361 263,995 0,634 -263,995 -262,361 -718,361 -456,0 -717,-361 Q 947,2381 947,1747 Z M 2906,525 Q 2725,213 2448,61 2172,-91 1784,-91 1150,-91 751,415 353,922 353,1747 q 0,825 398,1331 399,506 1033,506 388,0 664,-152 277,-151 458,-463 v 531 h 575 v -4831 h -575 z"
         transform="scale(0.015625)" />
      <path
         id="DejaVuSans-75"
         d="m 544,1381 v 2119 h 575 V 1403 q 0,-497 193,-746 194,-248 582,-248 465,0 735,297 271,297 271,810 v 1984 h 575 V 0 H 2900 V 538 Q 2691,219 2414,64 2138,-91 1772,-91 1169,-91 856,284 544,659 544,1381 Z m 1447,2203 z"
         transform="scale(0.015625)" />
      <path
         id="DejaVuSans-6e"
         d="M 3513,2113 V 0 h -575 v 2094 q 0,497 -194,743 -194,247 -581,247 -466,0 -735,-297 -269,-296 -269,-809 V 0 H 581 v 3500 h 578 v -544 q 207,316 486,472 280,156 646,156 603,0 912,-373 310,-373 310,-1098 z"
         transform="scale(0.015625)" />
      <path
         id="DejaVuSans-63"
         d="m 3122,3366 v -538 q -244,135 -489,202 -245,67 -495,67 -560,0 -870,-355 -309,-354 -309,-995 0,-641 309,-996 310,-354 870,-354 250,0 495,67 245,67 489,202 V 134 Q 2881,22 2623,-34 2366,-91 2075,-91 1284,-91 818,406 353,903 353,1747 q 0,856 470,1346 471,491 1290,491 265,0 518,-55 253,-54 491,-163 z"
         transform="scale(0.015625)" />
      <path
         id="DejaVuSans-69"
         d="m 603,3500 h 575 V 0 H 603 Z m 0,1363 h 575 V 4134 H 603 Z"
         transform="scale(0.015625)" />
      <path
         id="DejaVuSans-61"
         d="m 2194,1759 q -697,0 -966,-159 -269,-159 -269,-544 0,-306 202,-486 202,-179 548,-179 479,0 768,339 289,339 289,901 v 128 z m 1147,238 V 0 H 2766 V 531 Q 2569,213 2275,61 1981,-91 1556,-91 q -537,0 -855,302 -317,302 -317,808 0,590 395,890 396,300 1180,300 h 807 v 57 q 0,397 -261,614 -261,217 -733,217 -300,0 -585,-72 -284,-72 -546,-216 v 532 q 315,122 612,182 297,61 578,61 760,0 1135,-394 375,-393 375,-1193 z"
         transform="scale(0.015625)" />
      <path
         id="DejaVuSans-20"
         transform="scale(0.015625)"
         d="" />
      <path
         id="DejaVuSans-5b"
         d="M 550,4863 H 1875 V 4416 H 1125 V -397 h 750 V -844 H 550 Z"
         transform="scale(0.015625)" />
      <path
         id="DejaVuSans-48"
         d="m 628,4666 h 631 V 2753 h 2294 v 1913 h 631 V 0 H 3553 V 2222 H 1259 V 0 H 628 Z"
         transform="scale(0.015625)" />
      <path
         id="DejaVuSans-7a"
         d="M 353,3500 H 3084 V 2975 L 922,459 H 3084 V 0 H 275 V 525 L 2438,3041 H 353 Z"
         transform="scale(0.015625)" />
      <path
         id="DejaVuSans-5d"
         d="M 1947,4863 V -844 H 622 v 447 h 747 V 4416 H 622 v 447 z"
         transform="scale(0.015625)" />
    </defs>
  </defs>
  <path
     d="M 85.515088,567.92861 H 1156.8751 V 46.238206 H 85.515088 Z"
     style="fill:#ffffff"
     id="path11" />
  <path
     d="M -93.915072,2143.986 V 25.120357 H 5529.6 V 2143.986 Z"
     clip-path="url(#p77505321e4)"
     style="opacity:0.2;fill:#008000"
     id="path14"
     transform="translate(-87.284912,-35.064194)" />
  <path
     d="M -93.915072,442.47268 H 183.5136 V 25.120357 H -93.915072 Z"
     clip-path="url(#p77505321e4)"
     style="fill:#e6e6e6;stroke:#000000;stroke-linejoin:miter;stroke-dasharray:3.7, 1.6;stroke-dashoffset:0"
     id="path17"
     transform="translate(-87.284912,-35.064194)" />
  <path
     d="M 204.9408,2143.986 V 121.43243 H 440.64 V 2143.986 Z"
     clip-path="url(#p77505321e4)"
     style="fill:#e6e6e6;stroke:#000000;stroke-linejoin:miter;stroke-dasharray:3.7, 1.6;stroke-dashoffset:0"
     id="path20"
     transform="translate(-87.284912,-35.064194)" />
  <path
     d="M 547.776,442.47268 H 5797.3864 V 25.120357 H 547.776 Z"
     clip-path="url(#p77505321e4)"
     style="fill:#e6e6e6;stroke:#000000;stroke-linejoin:miter;stroke-dasharray:3.7, 1.6;stroke-dashoffset:0"
     id="path23"
     transform="translate(-87.284912,-35.064194)" />
  <g
     id="line2d_1"
     transform="translate(-87.284912,-35.064194)">
    <path
       d="M 172.8,602.9928 V 81.3024"
       clip-path="url(#p77505321e4)"
       style="fill:none;stroke:#b0b0b0;stroke-width:0.8;stroke-linecap:square"
       id="path26" />
  </g>
  <g
     id="line2d_2"
     transform="translate(-87.284912,-35.064194)">
    <defs
       id="defs30">
      <path
         id="m7f46d8d167"
         d="M 0,0 V 3.5"
         style="stroke:#000000;stroke-width:0.8" />
    </defs>
    <g
       id="g34">
      <use
         xlink:href="#m7f46d8d167"
         x="172.8"
         y="602.9928"
         style="stroke:#000000;stroke-width:0.8"
         id="use32" />
    </g>
  </g>
  <g
     id="text_1"
     transform="matrix(2.0736,0,0,2.0736,-272.80047,-685.20241)">
    <!-- 0 -->
    <g
       transform="matrix(0.1,0,0,-0.1,169.61875,617.59124)"
       id="g42">
      <defs
         id="defs38">
        <path
           id="DejaVuSans-30"
           d="m 2034,4250 q -487,0 -733,-480 -245,-479 -245,-1442 0,-959 245,-1439 246,-480 733,-480 491,0 736,480 246,480 246,1439 0,963 -246,1442 -245,480 -736,480 z m 0,500 q 785,0 1199,-621 414,-620 414,-1801 0,-1178 -414,-1799 -414,-620 -1199,-620 -784,0 -1198,620 -414,621 -414,1799 0,1181 414,1801 414,621 1198,621 z"
           transform="scale(0.015625)" />
      </defs>
      <use
         xlink:href="#DejaVuSans-30"
         id="use40" />
    </g>
  </g>
  <g
     id="line2d_3"
     transform="translate(-87.284912,-35.064194)">
    <path
       d="M 387.072,602.9928 V 81.3024"
       clip-path="url(#p77505321e4)"
       style="fill:none;stroke:#b0b0b0;stroke-width:0.8;stroke-linecap:square"
       id="path46" />
  </g>
  <g
     id="line2d_4"
     transform="translate(-87.284912,-35.064194)">
    <g
       id="g51">
      <use
         xlink:href="#m7f46d8d167"
         x="387.07199"
         y="602.9928"
         style="stroke:#000000;stroke-width:0.8"
         id="use49" />
    </g>
  </g>
  <g
     id="text_2"
     transform="matrix(2.0736,0,0,2.0736,-502.88221,-685.20241)">
    <!-- 20 -->
    <g
       transform="matrix(0.1,0,0,-0.1,380.7095,617.59124)"
       id="g61">
      <defs
         id="defs55">
        <path
           id="DejaVuSans-32"
           d="M 1228,531 H 3431 V 0 H 469 v 531 q 359,372 979,998 621,627 780,809 303,340 423,576 121,236 121,464 0,372 -261,606 -261,235 -680,235 -297,0 -627,-103 -329,-103 -704,-313 v 638 q 381,153 712,231 332,78 607,78 725,0 1156,-363 431,-362 431,-968 0,-288 -108,-546 -107,-257 -392,-607 -78,-91 -497,-524 Q 1991,1309 1228,531 Z"
           transform="scale(0.015625)" />
      </defs>
      <use
         xlink:href="#DejaVuSans-32"
         id="use57" />
      <use
         xlink:href="#DejaVuSans-30"
         x="63.623047"
         id="use59" />
    </g>
  </g>
  <g
     id="line2d_5"
     transform="translate(-87.284912,-35.064194)">
    <path
       d="M 601.344,602.9928 V 81.3024"
       clip-path="url(#p77505321e4)"
       style="fill:none;stroke:#b0b0b0;stroke-width:0.8;stroke-linecap:square"
       id="path65" />
  </g>
  <g
     id="line2d_6"
     transform="translate(-87.284912,-35.064194)">
    <g
       id="g70">
      <use
         xlink:href="#m7f46d8d167"
         x="601.34399"
         y="602.9928"
         style="stroke:#000000;stroke-width:0.8"
         id="use68" />
    </g>
  </g>
  <g
     id="text_3"
     transform="matrix(2.0736,0,0,2.0736,-732.79378,-685.20241)">
    <!-- 40 -->
    <g
       transform="matrix(0.1,0,0,-0.1,594.9815,617.59124)"
       id="g80">
      <defs
         id="defs74">
        <path
           id="DejaVuSans-34"
           d="M 2419,4116 825,1625 h 1594 z m -166,550 h 794 V 1625 h 666 V 1100 H 3047 V 0 H 2419 V 1100 H 313 v 609 z"
           transform="scale(0.015625)" />
      </defs>
      <use
         xlink:href="#DejaVuSans-34"
         id="use76" />
      <use
         xlink:href="#DejaVuSans-30"
         x="63.623047"
         id="use78" />
    </g>
  </g>
  <g
     id="line2d_7"
     transform="translate(-87.284912,-35.064194)">
    <path
       d="M 815.616,602.9928 V 81.3024"
       clip-path="url(#p77505321e4)"
       style="fill:none;stroke:#b0b0b0;stroke-width:0.8;stroke-linecap:square"
       id="path84" />
  </g>
  <g
     id="line2d_8"
     transform="translate(-87.284912,-35.064194)">
    <g
       id="g89">
      <use
         xlink:href="#m7f46d8d167"
         x="815.61603"
         y="602.9928"
         style="stroke:#000000;stroke-width:0.8"
         id="use87" />
    </g>
  </g>
  <g
     id="text_4"
     transform="matrix(2.0736,0,0,2.0736,-962.9486,-685.20241)">
    <!-- 60 -->
    <g
       transform="matrix(0.1,0,0,-0.1,809.2535,617.59124)"
       id="g99">
      <defs
         id="defs93">
        <path
           id="DejaVuSans-36"
           d="m 2113,2584 q -425,0 -674,-291 -248,-290 -248,-796 0,-503 248,-796 249,-292 674,-292 425,0 673,292 248,293 248,796 0,506 -248,796 -248,291 -673,291 z m 1253,1979 v -575 q -238,112 -480,171 -242,60 -480,60 -625,0 -955,-422 -329,-422 -376,-1275 184,272 462,417 279,145 613,145 703,0 1111,-427 408,-426 408,-1160 0,-719 -425,-1154 -425,-434 -1131,-434 -810,0 -1238,620 -428,621 -428,1799 0,1106 525,1764 525,658 1409,658 238,0 480,-47 242,-47 505,-140 z"
           transform="scale(0.015625)" />
      </defs>
      <use
         xlink:href="#DejaVuSans-36"
         id="use95" />
      <use
         xlink:href="#DejaVuSans-30"
         x="63.623047"
         id="use97" />
    </g>
  </g>
  <g
     id="line2d_9"
     transform="translate(-87.284912,-35.064194)">
    <path
       d="M 1029.888,602.9928 V 81.3024"
       clip-path="url(#p77505321e4)"
       style="fill:none;stroke:#b0b0b0;stroke-width:0.8;stroke-linecap:square"
       id="path103" />
  </g>
  <g
     id="line2d_10"
     transform="translate(-87.284912,-35.064194)">
    <g
       id="g108">
      <use
         xlink:href="#m7f46d8d167"
         x="1029.8879"
         y="602.9928"
         style="stroke:#000000;stroke-width:0.8"
         id="use106" />
    </g>
  </g>
  <g
     id="text_5"
     transform="matrix(2.0736,0,0,2.0736,-1192.9801,-685.20241)">
    <!-- 80 -->
    <g
       transform="matrix(0.1,0,0,-0.1,1023.5255,617.59124)"
       id="g118">
      <defs
         id="defs112">
        <path
           id="DejaVuSans-38"
           d="m 2034,2216 q -450,0 -708,-241 -257,-241 -257,-662 0,-422 257,-663 258,-241 708,-241 450,0 709,242 260,243 260,662 0,421 -258,662 -257,241 -711,241 z m -631,268 q -406,100 -633,378 -226,279 -226,679 0,559 398,884 399,325 1092,325 697,0 1094,-325 397,-325 397,-884 0,-400 -227,-679 -226,-278 -629,-378 456,-106 710,-416 255,-309 255,-755 Q 3634,634 3220,271 2806,-91 2034,-91 1263,-91 848,271 434,634 434,1313 q 0,446 256,755 257,310 713,416 z m -231,997 q 0,-362 226,-565 227,-203 636,-203 407,0 636,203 230,203 230,565 0,363 -230,566 -229,203 -636,203 -409,0 -636,-203 -226,-203 -226,-566 z"
           transform="scale(0.015625)" />
      </defs>
      <use
         xlink:href="#DejaVuSans-38"
         id="use114" />
      <use
         xlink:href="#DejaVuSans-30"
         x="63.623047"
         id="use116" />
    </g>
  </g>
  <g
     id="line2d_11"
     transform="translate(-87.284912,-35.064194)">
    <path
       d="M 1244.16,602.9928 V 81.3024"
       clip-path="url(#p77505321e4)"
       style="fill:none;stroke:#b0b0b0;stroke-width:0.8;stroke-linecap:square"
       id="path122" />
  </g>
  <g
     id="line2d_12"
     transform="matrix(3.3893621,0,0,3.3893621,-3060.9894,-1484.1951)">
    <g
       id="g127">
      <use
         xlink:href="#m7f46d8d167"
         x="1244.16"
         y="602.9928"
         style="stroke:#000000;stroke-width:0.8"
         id="use125" />
    </g>
  </g>
  <g
     id="text_6"
     transform="matrix(2.0736,0,0,2.0736,-1423.2481,-685.20241)">
    <!-- 100 -->
    <g
       transform="matrix(0.1,0,0,-0.1,1234.6163,617.59124)"
       id="g139">
      <defs
         id="defs131">
        <path
           id="DejaVuSans-31"
           d="M 794,531 H 1825 V 4091 L 703,3866 v 575 l 1116,225 h 631 V 531 H 3481 V 0 H 794 Z"
           transform="scale(0.015625)" />
      </defs>
      <use
         xlink:href="#DejaVuSans-31"
         id="use133" />
      <use
         xlink:href="#DejaVuSans-30"
         x="63.623047"
         id="use135" />
      <use
         xlink:href="#DejaVuSans-30"
         x="127.24609"
         id="use137" />
    </g>
  </g>
  <use
     xlink:href="#DejaVuSans-46"
     id="use159"
     transform="matrix(0.26314973,0,0,-0.26314973,521.82771,621.24793)" />
  <use
     xlink:href="#DejaVuSans-72"
     x="50.269531"
     id="use161"
     transform="matrix(0.26314973,0,0,-0.26314973,521.82771,621.24793)" />
  <use
     xlink:href="#DejaVuSans-65"
     x="89.132812"
     id="use163"
     transform="matrix(0.26314973,0,0,-0.26314973,521.82771,621.24793)" />
  <use
     xlink:href="#DejaVuSans-75"
     x="214.13281"
     id="use167"
     transform="matrix(0.26314973,0,0,-0.26314973,521.82771,621.24793)" />
  <use
     xlink:href="#DejaVuSans-65"
     x="277.51172"
     id="use169"
     transform="matrix(0.26314973,0,0,-0.26314973,521.82771,621.24793)" />
  <use
     xlink:href="#DejaVuSans-6e"
     x="339.03516"
     id="use171"
     transform="matrix(0.26314973,0,0,-0.26314973,521.82771,621.24793)" />
  <use
     xlink:href="#DejaVuSans-63"
     x="402.41406"
     id="use173"
     transform="matrix(0.26314973,0,0,-0.26314973,521.82771,621.24793)" />
  <use
     xlink:href="#DejaVuSans-69"
     x="457.39453"
     id="use175"
     transform="matrix(0.26314973,0,0,-0.26314973,521.82771,621.24793)" />
  <use
     xlink:href="#DejaVuSans-61"
     x="485.17773"
     id="use177"
     transform="matrix(0.26314973,0,0,-0.26314973,521.82771,621.24793)" />
  <use
     xlink:href="#DejaVuSans-20"
     x="546.45703"
     id="use179"
     transform="matrix(0.26314973,0,0,-0.26314973,521.82771,621.24793)" />
  <use
     xlink:href="#DejaVuSans-5b"
     x="578.24414"
     id="use181"
     transform="matrix(0.26314973,0,0,-0.26314973,521.82771,621.24793)" />
  <use
     xlink:href="#DejaVuSans-48"
     x="617.25781"
     id="use183"
     transform="matrix(0.26314973,0,0,-0.26314973,521.82771,621.24793)" />
  <use
     xlink:href="#DejaVuSans-7a"
     x="692.45312"
     id="use185"
     transform="matrix(0.26314973,0,0,-0.26314973,521.82771,621.24793)" />
  <use
     xlink:href="#DejaVuSans-5d"
     x="744.94336"
     id="use187"
     transform="matrix(0.26314973,0,0,-0.26314973,521.82771,621.24793)" />
  <g
     id="line2d_13"
     transform="translate(-87.284912,-35.064194)">
    <path
       d="M 172.8,602.9928 H 1244.16"
       clip-path="url(#p77505321e4)"
       style="fill:none;stroke:#b0b0b0;stroke-width:0.8;stroke-linecap:square"
       id="path193" />
  </g>
  <g
     id="line2d_14"
     transform="translate(-87.284912,-35.064194)">
    <defs
       id="defs197">
      <path
         id="ma997ee4dbb"
         d="M 0,0 H -3.5"
         style="stroke:#000000;stroke-width:0.8" />
    </defs>
    <g
       id="g201">
      <use
         xlink:href="#ma997ee4dbb"
         x="172.8"
         y="602.9928"
         style="stroke:#000000;stroke-width:0.8"
         id="use199" />
    </g>
  </g>
  <g
     id="text_8"
     transform="matrix(1.728,0,0,1.728,-215.47983,-474.15898)">
    <!-- −60 -->
    <g
       transform="matrix(0.1,0,0,-0.1,144.69531,606.79202)"
       id="g213">
      <defs
         id="defs205">
        <path
           id="DejaVuSans-2212"
           d="M 678,2272 H 4684 V 1741 H 678 Z"
           transform="scale(0.015625)" />
      </defs>
      <use
         xlink:href="#DejaVuSans-2212"
         id="use207" />
      <use
         xlink:href="#DejaVuSans-36"
         x="83.789062"
         id="use209" />
      <use
         xlink:href="#DejaVuSans-30"
         x="147.41211"
         id="use211" />
    </g>
  </g>
  <g
     id="line2d_15"
     transform="translate(-87.284912,-35.064194)">
    <path
       d="M 172.8,522.73274 H 1244.16"
       clip-path="url(#p77505321e4)"
       style="fill:none;stroke:#b0b0b0;stroke-width:0.8;stroke-linecap:square"
       id="path217" />
  </g>
  <g
     id="line2d_16"
     transform="translate(-87.284912,-35.064194)">
    <g
       id="g222">
      <use
         xlink:href="#ma997ee4dbb"
         x="172.8"
         y="522.73273"
         style="stroke:#000000;stroke-width:0.8"
         id="use220" />
    </g>
  </g>
  <g
     id="text_9"
     transform="matrix(1.728,0,0,1.728,-215.47983,-415.72965)">
    <!-- −50 -->
    <g
       transform="matrix(0.1,0,0,-0.1,144.69531,526.53196)"
       id="g234">
      <defs
         id="defs226">
        <path
           id="DejaVuSans-35"
           d="M 691,4666 H 3169 V 4134 H 1269 V 2991 q 137,47 274,70 138,23 276,23 781,0 1237,-428 457,-428 457,-1159 Q 3513,744 3044,326 2575,-91 1722,-91 1428,-91 1123,-41 819,9 494,109 v 635 q 281,-153 581,-228 300,-75 634,-75 541,0 856,284 316,284 316,772 0,487 -316,771 -315,285 -856,285 -253,0 -505,-56 -251,-56 -513,-175 z"
           transform="scale(0.015625)" />
      </defs>
      <use
         xlink:href="#DejaVuSans-2212"
         id="use228" />
      <use
         xlink:href="#DejaVuSans-35"
         x="83.789062"
         id="use230" />
      <use
         xlink:href="#DejaVuSans-30"
         x="147.41211"
         id="use232" />
    </g>
  </g>
  <g
     id="line2d_17"
     transform="translate(-87.284912,-35.064194)">
    <path
       d="M 172.8,442.47268 H 1244.16"
       clip-path="url(#p77505321e4)"
       style="fill:none;stroke:#b0b0b0;stroke-width:0.8;stroke-linecap:square"
       id="path238" />
  </g>
  <g
     id="line2d_18"
     transform="translate(-87.284912,-35.064194)">
    <g
       id="g243">
      <use
         xlink:href="#ma997ee4dbb"
         x="172.8"
         y="442.47269"
         style="stroke:#000000;stroke-width:0.8"
         id="use241" />
    </g>
  </g>
  <g
     id="text_10"
     transform="matrix(1.728,0,0,1.728,-215.47983,-357.30032)">
    <!-- −40 -->
    <g
       transform="matrix(0.1,0,0,-0.1,144.69531,446.2719)"
       id="g252">
      <use
         xlink:href="#DejaVuSans-2212"
         id="use246" />
      <use
         xlink:href="#DejaVuSans-34"
         x="83.789062"
         id="use248" />
      <use
         xlink:href="#DejaVuSans-30"
         x="147.41211"
         id="use250" />
    </g>
  </g>
  <g
     id="line2d_19"
     transform="translate(-87.284912,-35.064194)">
    <path
       d="M 172.8,362.21262 H 1244.16"
       clip-path="url(#p77505321e4)"
       style="fill:none;stroke:#b0b0b0;stroke-width:0.8;stroke-linecap:square"
       id="path256" />
  </g>
  <g
     id="line2d_20"
     transform="translate(-87.284912,-35.064194)">
    <g
       id="g261">
      <use
         xlink:href="#ma997ee4dbb"
         x="172.8"
         y="362.21262"
         style="stroke:#000000;stroke-width:0.8"
         id="use259" />
    </g>
  </g>
  <g
     id="text_11"
     transform="matrix(1.728,0,0,1.728,-215.47983,-298.87099)">
    <!-- −30 -->
    <g
       transform="matrix(0.1,0,0,-0.1,144.69531,366.01183)"
       id="g273">
      <defs
         id="defs265">
        <path
           id="DejaVuSans-33"
           d="m 2597,2516 q 453,-97 707,-404 255,-306 255,-756 0,-690 -475,-1069 -475,-378 -1350,-378 -293,0 -604,58 -311,58 -642,174 v 609 q 262,-153 574,-231 313,-78 654,-78 593,0 904,234 311,234 311,681 0,413 -289,645 -289,233 -804,233 h -544 v 519 h 569 q 465,0 712,186 247,186 247,536 0,359 -255,551 -254,193 -729,193 -260,0 -557,-57 -297,-56 -653,-174 v 562 q 360,100 674,150 314,50 592,50 719,0 1137,-327 419,-326 419,-882 0,-388 -222,-655 -222,-267 -631,-370 z"
           transform="scale(0.015625)" />
      </defs>
      <use
         xlink:href="#DejaVuSans-2212"
         id="use267" />
      <use
         xlink:href="#DejaVuSans-33"
         x="83.789062"
         id="use269" />
      <use
         xlink:href="#DejaVuSans-30"
         x="147.41211"
         id="use271" />
    </g>
  </g>
  <g
     id="line2d_21"
     transform="translate(-87.284912,-35.064194)">
    <path
       d="M 172.8,281.95255 H 1244.16"
       clip-path="url(#p77505321e4)"
       style="fill:none;stroke:#b0b0b0;stroke-width:0.8;stroke-linecap:square"
       id="path277" />
  </g>
  <g
     id="line2d_22"
     transform="translate(-87.284912,-35.064194)">
    <g
       id="g282">
      <use
         xlink:href="#ma997ee4dbb"
         x="172.8"
         y="281.95255"
         style="stroke:#000000;stroke-width:0.8"
         id="use280" />
    </g>
  </g>
  <g
     id="text_12"
     transform="matrix(1.728,0,0,1.728,-215.47983,-240.44167)">
    <!-- −20 -->
    <g
       transform="matrix(0.1,0,0,-0.1,144.69531,285.75177)"
       id="g291">
      <use
         xlink:href="#DejaVuSans-2212"
         id="use285" />
      <use
         xlink:href="#DejaVuSans-32"
         x="83.789062"
         id="use287" />
      <use
         xlink:href="#DejaVuSans-30"
         x="147.41211"
         id="use289" />
    </g>
  </g>
  <g
     id="line2d_23"
     transform="translate(-87.284912,-35.064194)">
    <path
       d="M 172.8,201.69249 H 1244.16"
       clip-path="url(#p77505321e4)"
       style="fill:none;stroke:#b0b0b0;stroke-width:0.8;stroke-linecap:square"
       id="path295" />
  </g>
  <g
     id="line2d_24"
     transform="translate(-87.284912,-35.064194)">
    <g
       id="g300">
      <use
         xlink:href="#ma997ee4dbb"
         x="172.8"
         y="201.69249"
         style="stroke:#000000;stroke-width:0.8"
         id="use298" />
    </g>
  </g>
  <g
     id="text_13"
     transform="matrix(1.728,0,0,1.728,-215.47983,-182.01235)">
    <!-- −10 -->
    <g
       transform="matrix(0.1,0,0,-0.1,144.69531,205.49171)"
       id="g309">
      <use
         xlink:href="#DejaVuSans-2212"
         id="use303" />
      <use
         xlink:href="#DejaVuSans-31"
         x="83.789062"
         id="use305" />
      <use
         xlink:href="#DejaVuSans-30"
         x="147.41211"
         id="use307" />
    </g>
  </g>
  <g
     id="line2d_25"
     transform="translate(-87.284912,-35.064194)">
    <path
       d="M 172.8,121.43243 H 1244.16"
       clip-path="url(#p77505321e4)"
       style="fill:none;stroke:#b0b0b0;stroke-width:0.8;stroke-linecap:square"
       id="path313" />
  </g>
  <g
     id="line2d_26"
     transform="translate(-87.284912,-35.064194)">
    <g
       id="g318">
      <use
         xlink:href="#ma997ee4dbb"
         x="172.8"
         y="121.43243"
         style="stroke:#000000;stroke-width:0.8"
         id="use316" />
    </g>
  </g>
  <g
     id="text_14"
     transform="matrix(1.728,0,0,1.728,-220.70074,-123.58303)">
    <!-- 0 -->
    <g
       transform="matrix(0.1,0,0,-0.1,159.4375,125.23165)"
       id="g323">
      <use
         xlink:href="#DejaVuSans-30"
         id="use321" />
    </g>
  </g>
  <g
     transform="matrix(0,-0.26154019,-0.26154019,0,19.872968,396.59638)"
     id="g356">
    <defs
       id="defs332">
      <path
         id="DejaVuSans-4d"
         d="m 628,4666 h 941 L 2759,1491 3956,4666 h 941 V 0 H 4281 V 4097 L 3078,897 H 2444 L 1241,4097 V 0 H 628 Z"
         transform="scale(0.015625)" />
      <path
         id="DejaVuSans-6f"
         d="m 1959,3097 q -462,0 -731,-361 -269,-361 -269,-989 0,-628 267,-989 268,-361 733,-361 460,0 728,362 269,363 269,988 0,622 -269,986 -268,364 -728,364 z m 0,487 q 750,0 1178,-488 429,-487 429,-1349 Q 3566,888 3137,398 2709,-91 1959,-91 1206,-91 779,398 353,888 353,1747 q 0,862 426,1349 427,488 1180,488 z"
         transform="scale(0.015625)" />
      <path
         id="DejaVuSans-64"
         d="m 2906,2969 v 1894 h 575 V 0 H 2906 V 525 Q 2725,213 2448,61 2172,-91 1784,-91 1150,-91 751,415 353,922 353,1747 q 0,825 398,1331 399,506 1033,506 388,0 664,-152 277,-151 458,-463 z M 947,1747 q 0,-634 261,-995 261,-361 717,-361 456,0 718,361 263,361 263,995 0,634 -263,995 -262,361 -718,361 -456,0 -717,-361 -261,-361 -261,-995 z"
         transform="scale(0.015625)" />
      <path
         id="DejaVuSans-6c"
         d="m 603,4863 h 575 V 0 H 603 Z"
         transform="scale(0.015625)" />
      <path
         id="DejaVuSans-42"
         d="M 1259,2228 V 519 h 1013 q 509,0 754,211 246,211 246,645 0,438 -246,645 -245,208 -754,208 z m 0,1919 V 2741 h 935 q 462,0 688,173 227,174 227,530 0,353 -227,528 -226,175 -688,175 z m -631,519 h 1613 q 722,0 1112,-300 391,-300 391,-853 0,-429 -200,-682 -200,-253 -588,-315 466,-100 724,-418 258,-317 258,-792 0,-625 -425,-966 Q 3088,0 2303,0 H 628 Z"
         transform="scale(0.015625)" />
    </defs>
    <use
       xlink:href="#DejaVuSans-4d"
       id="use334" />
    <use
       xlink:href="#DejaVuSans-6f"
       x="86.279297"
       id="use336" />
    <use
       xlink:href="#DejaVuSans-64"
       x="147.46094"
       id="use338" />
    <use
       xlink:href="#DejaVuSans-75"
       x="210.9375"
       id="use340" />
    <use
       xlink:href="#DejaVuSans-6c"
       x="274.31641"
       id="use342" />
    <use
       xlink:href="#DejaVuSans-6f"
       x="302.09961"
       id="use344" />
    <use
       xlink:href="#DejaVuSans-20"
       x="363.28125"
       id="use346" />
    <use
       xlink:href="#DejaVuSans-5b"
       x="395.06836"
       id="use348" />
    <use
       xlink:href="#DejaVuSans-64"
       x="434.08203"
       id="use350" />
    <use
       xlink:href="#DejaVuSans-42"
       x="497.55859"
       id="use352" />
    <use
       xlink:href="#DejaVuSans-5d"
       x="566.16211"
       id="use354" />
  </g>
  <path
     d="M 85.515088,567.92861 V 46.238206"
     style="fill:none;stroke:#000000;stroke-width:0.8;stroke-linecap:square;stroke-linejoin:miter"
     id="path361" />
  <path
     d="M 1156.8751,567.92861 V 46.238206"
     style="fill:none;stroke:#000000;stroke-width:0.8;stroke-linecap:square;stroke-linejoin:miter"
     id="path364" />
  <path
     d="M 85.515088,567.92861 H 1156.8751"
     style="fill:none;stroke:#000000;stroke-width:0.8;stroke-linecap:square;stroke-linejoin:miter"
     id="path367" />
  <path
     d="M 85.515088,46.238206 H 1156.8751"
     style="fill:none;stroke:#000000;stroke-width:0.8;stroke-linecap:square;stroke-linejoin:miter"
     id="path370" />
  <g
     id="patch_11"
     transform="matrix(3.3893621,0,0,3.3893621,-3060.9894,-1484.1951)">
    <path
       d="m 1156.3756,597.9928 h 80.7844 q 2,0 2,-2 v -28.35625 q 0,-2 -2,-2 h -80.7844 q -2,0 -2,2 v 28.35625 q 0,2 2,2 z"
       style="opacity:0.8;fill:#ffffff;stroke:#cccccc;stroke-linejoin:miter"
       id="path452" />
  </g>
  <g
     id="patch_12"
     transform="matrix(3.3893621,0,0,3.3893621,-3060.9894,-1484.1951)">
    <path
       d="m 1158.3756,577.23499 h 20 v -7 h -20 z"
       style="opacity:0.2;fill:#008000"
       id="path455" />
  </g>
  <g
     id="text_17"
     transform="matrix(3.3893621,0,0,3.3893621,-3060.9894,-1484.1951)">
    <!-- bw digital -->
    <g
       transform="matrix(0.1,0,0,-0.1,1186.3756,577.23499)"
       id="g483">
      <defs
         id="defs461">
        <path
           id="DejaVuSans-62"
           d="m 3116,1747 q 0,634 -261,995 -261,361 -717,361 -457,0 -718,-361 -261,-361 -261,-995 0,-634 261,-995 261,-361 718,-361 456,0 717,361 261,361 261,995 z M 1159,2969 q 182,312 458,463 277,152 661,152 638,0 1036,-506 399,-506 399,-1331 Q 3713,922 3314,415 2916,-91 2278,-91 1894,-91 1617,61 1341,213 1159,525 V 0 H 581 v 4863 h 578 z"
           transform="scale(0.015625)" />
        <path
           id="DejaVuSans-77"
           d="m 269,3500 h 575 l 719,-2731 715,2731 h 678 l 719,-2731 716,2731 h 575 L 4050,0 H 3372 L 2619,2869 1863,0 h -679 z"
           transform="scale(0.015625)" />
        <path
           id="DejaVuSans-67"
           d="m 2906,1791 q 0,625 -258,968 -257,344 -723,344 -462,0 -720,-344 -258,-343 -258,-968 0,-622 258,-966 258,-344 720,-344 466,0 723,344 258,344 258,966 z M 3481,434 q 0,-893 -397,-1329 -396,-436 -1215,-436 -303,0 -572,45 -269,45 -522,139 v 559 q 253,-137 500,-202 247,-66 503,-66 566,0 847,295 281,295 281,892 V 616 Q 2728,306 2450,153 2172,0 1784,0 1141,0 747,490 353,981 353,1791 q 0,812 394,1302 394,491 1037,491 388,0 666,-153 278,-153 456,-462 v 531 h 575 z"
           transform="scale(0.015625)" />
      </defs>
      <use
         xlink:href="#DejaVuSans-62"
         id="use463" />
      <use
         xlink:href="#DejaVuSans-77"
         x="63.476562"
         id="use465" />
      <use
         xlink:href="#DejaVuSans-20"
         x="145.26367"
         id="use467" />
      <use
         xlink:href="#DejaVuSans-64"
         x="177.05078"
         id="use469" />
      <use
         xlink:href="#DejaVuSans-69"
         x="240.52734"
         id="use471" />
      <use
         xlink:href="#DejaVuSans-67"
         x="268.31055"
         id="use473" />
      <use
         xlink:href="#DejaVuSans-69"
         x="331.78711"
         id="use475" />
      <path
         id="use477"
         d="M 377.88281,70.21875 V 54.6875 h 18.5 v -6.984375 h -18.5 v -29.6875 q 0,-6.6875 1.82813,-8.59375 1.82812,-1.90625 7.45312,-1.90625 h 9.21875 V 0 h -9.21875 q -10.40625,0 -14.35937,3.875 -3.95313,3.890625 -3.95313,14.140625 v 29.6875 h -6.59375 V 54.6875 h 6.59375 v 15.53125 z"
         style="stroke-width:0.015625" />
      <use
         xlink:href="#DejaVuSans-61"
         x="398.7793"
         id="use479" />
      <use
         xlink:href="#DejaVuSans-6c"
         x="460.05859"
         id="use481" />
    </g>
  </g>
  <g
     id="patch_13"
     transform="matrix(3.3893621,0,0,3.3893621,-3060.9894,-1484.1951)">
    <path
       d="m 1158.3756,591.91311 h 20 v -7 h -20 z"
       style="fill:#e6e6e6;stroke:#000000;stroke-linejoin:miter;stroke-dasharray:3.7, 1.6;stroke-dashoffset:0"
       id="path486" />
  </g>
  <g
     id="text_18"
     transform="matrix(3.3893621,0,0,3.3893621,-3060.9894,-1484.1951)">
    <!-- plantilla -->
    <g
       transform="matrix(0.1,0,0,-0.1,1186.3756,591.91311)"
       id="g507">
      <path
         id="use489"
         d="m 18.109375,8.203125 v -29 H 9.078125 V 54.6875 h 9.03125 v -8.296875 q 2.84375,4.875 7.15625,7.234375 Q 29.59375,56 35.59375,56 q 9.96875,0 16.1875,-7.90625 6.234375,-7.90625 6.234375,-20.796875 0,-12.890625 -6.234375,-20.8125 -6.21875,-7.90625 -16.1875,-7.90625 -6,0 -10.328125,2.375 -4.3125,2.375 -7.15625,7.25 z M 48.6875,27.296875 q 0,9.90625 -4.078125,15.546875 -4.078125,5.640625 -11.203125,5.640625 -7.140625,0 -11.21875,-5.640625 -4.078125,-5.640625 -4.078125,-15.546875 0,-9.90625 4.078125,-15.546875 4.078125,-5.640625 11.21875,-5.640625 7.125,0 11.203125,5.640625 4.078125,5.640625 4.078125,15.546875 z"
         style="stroke-width:0.015625" />
      <use
         xlink:href="#DejaVuSans-6c"
         x="63.476562"
         id="use491" />
      <use
         xlink:href="#DejaVuSans-61"
         x="91.259766"
         id="use493" />
      <use
         xlink:href="#DejaVuSans-6e"
         x="152.53906"
         id="use495" />
      <path
         id="use497"
         d="M 234.23047,70.21875 V 54.6875 h 18.5 v -6.984375 h -18.5 v -29.6875 q 0,-6.6875 1.82812,-8.59375 1.82813,-1.90625 7.45313,-1.90625 h 9.21875 V 0 h -9.21875 q -10.40625,0 -14.35938,3.875 -3.95312,3.890625 -3.95312,14.140625 v 29.6875 h -6.59375 V 54.6875 h 6.59375 v 15.53125 z"
         style="stroke-width:0.015625" />
      <use
         xlink:href="#DejaVuSans-69"
         x="255.12695"
         id="use499" />
      <use
         xlink:href="#DejaVuSans-6c"
         x="282.91016"
         id="use501" />
      <use
         xlink:href="#DejaVuSans-6c"
         x="310.69336"
         id="use503" />
      <use
         xlink:href="#DejaVuSans-61"
         x="338.47656"
         id="use505" />
    </g>
  </g>
  <defs
     id="defs516">
    <clipPath
       id="p77505321e4">
      <rect
         x="172.8"
         y="81.302399"
         width="1071.36"
         height="521.69043"
         id="rect513" />
    </clipPath>
  </defs>
  <use
     xlink:href="#DejaVuSans-63"
     x="402.41406"
     id="use2404"
     transform="matrix(0.26314973,0,0,-0.26314973,457.02609,621.24793)" />
  <text
     xml:space="preserve"
     style="font-size:36px;fill:none;stroke:#000000;stroke-width:1.49953"
     x="442.14392"
     y="27.966797"
     id="text2408"><tspan
       sodipodi:role="line"
       id="tspan2406"
       style="font-size:36px;fill:#000000;stroke:none;stroke-width:1.49953"
       x="442.14392"
       y="27.966797">Plantilla de diseño</tspan></text>
</svg>
